<mxfile host="app.diagrams.net" modified="2023-04-19T21:48:21.293Z" agent="Mozilla/5.0 (Windows NT 10.0; Win64; x64) AppleWebKit/537.36 (KHTML, like Gecko) Chrome/111.0.0.0 Safari/537.36 OPR/97.0.0.0" etag="OaUHXVZEVfE6W9OQZhpW" version="21.2.1" type="device">
  <diagram id="C5RBs43oDa-KdzZeNtuy" name="Page-1">
    <mxGraphModel dx="2466" dy="928" grid="1" gridSize="10" guides="1" tooltips="1" connect="1" arrows="1" fold="1" page="1" pageScale="1" pageWidth="827" pageHeight="1169" math="0" shadow="0">
      <root>
        <mxCell id="WIyWlLk6GJQsqaUBKTNV-0" />
        <mxCell id="WIyWlLk6GJQsqaUBKTNV-1" parent="WIyWlLk6GJQsqaUBKTNV-0" />
        <mxCell id="MI_CqLFvPXbOkAA7WH_L-0" value="" style="shape=folder;fontStyle=1;spacingTop=10;tabWidth=50;tabHeight=20;tabPosition=left;html=1;whiteSpace=wrap;" parent="WIyWlLk6GJQsqaUBKTNV-1" vertex="1">
          <mxGeometry x="-780" y="60" width="1370" height="970" as="geometry" />
        </mxCell>
        <mxCell id="MI_CqLFvPXbOkAA7WH_L-1" value="Client" style="text;align=center;fontStyle=1;verticalAlign=middle;spacingLeft=3;spacingRight=3;strokeColor=none;rotatable=0;points=[[0,0.5],[1,0.5]];portConstraint=eastwest;html=1;" parent="WIyWlLk6GJQsqaUBKTNV-1" vertex="1">
          <mxGeometry x="-780" y="60" width="90" height="20" as="geometry" />
        </mxCell>
        <mxCell id="MI_CqLFvPXbOkAA7WH_L-7" value="" style="group" parent="WIyWlLk6GJQsqaUBKTNV-1" vertex="1" connectable="0">
          <mxGeometry x="-750" y="100" width="1130" height="190" as="geometry" />
        </mxCell>
        <mxCell id="MI_CqLFvPXbOkAA7WH_L-5" value="" style="shape=folder;fontStyle=1;spacingTop=10;tabWidth=50;tabHeight=20;tabPosition=left;html=1;whiteSpace=wrap;" parent="MI_CqLFvPXbOkAA7WH_L-7" vertex="1">
          <mxGeometry width="1130" height="137.22" as="geometry" />
        </mxCell>
        <mxCell id="MI_CqLFvPXbOkAA7WH_L-6" value="Pages" style="text;align=center;fontStyle=1;verticalAlign=middle;spacingLeft=3;spacingRight=3;strokeColor=none;rotatable=0;points=[[0,0.5],[1,0.5]];portConstraint=eastwest;html=1;" parent="MI_CqLFvPXbOkAA7WH_L-7" vertex="1">
          <mxGeometry width="50" height="15.737373737373739" as="geometry" />
        </mxCell>
        <mxCell id="MI_CqLFvPXbOkAA7WH_L-15" value="&lt;p style=&quot;margin:0px;margin-top:4px;text-align:center;&quot;&gt;&lt;b&gt;MainPageComponent&lt;/b&gt;&lt;/p&gt;&lt;hr size=&quot;1&quot;&gt;&lt;div style=&quot;height:2px;&quot;&gt;&lt;/div&gt;" style="verticalAlign=top;align=left;overflow=fill;fontSize=12;fontFamily=Helvetica;html=1;whiteSpace=wrap;" parent="MI_CqLFvPXbOkAA7WH_L-7" vertex="1">
          <mxGeometry x="20" y="57" width="130" height="48.55555555555556" as="geometry" />
        </mxCell>
        <mxCell id="MI_CqLFvPXbOkAA7WH_L-16" value="&lt;p style=&quot;margin:0px;margin-top:4px;text-align:center;&quot;&gt;&lt;b&gt;CreationPageComponent&lt;/b&gt;&lt;/p&gt;&lt;hr size=&quot;1&quot;&gt;&lt;div style=&quot;height:2px;&quot;&gt;&lt;/div&gt;" style="verticalAlign=top;align=left;overflow=fill;fontSize=12;fontFamily=Helvetica;html=1;whiteSpace=wrap;" parent="MI_CqLFvPXbOkAA7WH_L-7" vertex="1">
          <mxGeometry x="170" y="59.11111111111111" width="150" height="46.44444444444445" as="geometry" />
        </mxCell>
        <mxCell id="MI_CqLFvPXbOkAA7WH_L-17" value="&lt;p style=&quot;margin:0px;margin-top:4px;text-align:center;&quot;&gt;&lt;b&gt;GamePageComponent&lt;/b&gt;&lt;/p&gt;&lt;hr size=&quot;1&quot;&gt;&lt;div style=&quot;height:2px;&quot;&gt;&lt;/div&gt;" style="verticalAlign=top;align=left;overflow=fill;fontSize=12;fontFamily=Helvetica;html=1;whiteSpace=wrap;" parent="MI_CqLFvPXbOkAA7WH_L-7" vertex="1">
          <mxGeometry x="540" y="59.11111111111111" width="150" height="46.44444444444445" as="geometry" />
        </mxCell>
        <mxCell id="MI_CqLFvPXbOkAA7WH_L-18" value="&lt;p style=&quot;margin:0px;margin-top:4px;text-align:center;&quot;&gt;&lt;b&gt;GameConfigurationPageComponent&lt;/b&gt;&lt;/p&gt;&lt;hr size=&quot;1&quot;&gt;&lt;div style=&quot;height:2px;&quot;&gt;&lt;/div&gt;" style="verticalAlign=top;align=left;overflow=fill;fontSize=12;fontFamily=Helvetica;html=1;whiteSpace=wrap;" parent="MI_CqLFvPXbOkAA7WH_L-7" vertex="1">
          <mxGeometry x="850" y="57.00111111111111" width="220" height="46.44444444444445" as="geometry" />
        </mxCell>
        <mxCell id="MI_CqLFvPXbOkAA7WH_L-19" value="&lt;p style=&quot;margin:0px;margin-top:4px;text-align:center;&quot;&gt;&lt;b&gt;GameSelectionPageComponent&lt;/b&gt;&lt;/p&gt;&lt;hr size=&quot;1&quot;&gt;&lt;div style=&quot;height:2px;&quot;&gt;&lt;/div&gt;" style="verticalAlign=top;align=left;overflow=fill;fontSize=12;fontFamily=Helvetica;html=1;whiteSpace=wrap;" parent="MI_CqLFvPXbOkAA7WH_L-7" vertex="1">
          <mxGeometry x="330" y="59.11111111111111" width="190" height="46.44444444444445" as="geometry" />
        </mxCell>
        <mxCell id="MI_CqLFvPXbOkAA7WH_L-9" value="" style="group" parent="WIyWlLk6GJQsqaUBKTNV-1" vertex="1" connectable="0">
          <mxGeometry x="-750" y="265" width="1310" height="460" as="geometry" />
        </mxCell>
        <mxCell id="MI_CqLFvPXbOkAA7WH_L-10" value="" style="shape=folder;fontStyle=1;spacingTop=10;tabWidth=80;tabHeight=20;tabPosition=left;html=1;whiteSpace=wrap;" parent="MI_CqLFvPXbOkAA7WH_L-9" vertex="1">
          <mxGeometry width="1310" height="460" as="geometry" />
        </mxCell>
        <mxCell id="MI_CqLFvPXbOkAA7WH_L-11" value="Composant" style="text;align=center;fontStyle=1;verticalAlign=middle;spacingLeft=3;spacingRight=3;strokeColor=none;rotatable=0;points=[[0,0.5],[1,0.5]];portConstraint=eastwest;html=1;" parent="MI_CqLFvPXbOkAA7WH_L-9" vertex="1">
          <mxGeometry x="-0.00032258064516099694" width="73.17073170731707" height="17.27272727272727" as="geometry" />
        </mxCell>
        <mxCell id="MI_CqLFvPXbOkAA7WH_L-20" value="&lt;p style=&quot;margin:0px;margin-top:4px;text-align:center;&quot;&gt;&lt;b&gt;CreationCanvasesComponent&lt;/b&gt;&lt;/p&gt;&lt;hr size=&quot;1&quot;&gt;&lt;div style=&quot;height:2px;&quot;&gt;&lt;/div&gt;" style="verticalAlign=top;align=left;overflow=fill;fontSize=12;fontFamily=Helvetica;html=1;whiteSpace=wrap;" parent="MI_CqLFvPXbOkAA7WH_L-9" vertex="1">
          <mxGeometry x="160" y="45" width="190" height="46" as="geometry" />
        </mxCell>
        <mxCell id="MI_CqLFvPXbOkAA7WH_L-35" value="&lt;p style=&quot;margin:0px;margin-top:4px;text-align:center;&quot;&gt;&lt;b&gt;TitleBarComponent&lt;/b&gt;&lt;/p&gt;&lt;hr size=&quot;1&quot;&gt;&lt;div style=&quot;height:2px;&quot;&gt;&lt;/div&gt;" style="verticalAlign=top;align=left;overflow=fill;fontSize=12;fontFamily=Helvetica;html=1;whiteSpace=wrap;" parent="MI_CqLFvPXbOkAA7WH_L-9" vertex="1">
          <mxGeometry x="20" y="45" width="120" height="46" as="geometry" />
        </mxCell>
        <mxCell id="MI_CqLFvPXbOkAA7WH_L-37" value="&lt;p style=&quot;margin:0px;margin-top:4px;text-align:center;&quot;&gt;&lt;b&gt;GameSelectionCarouselComponent&lt;/b&gt;&lt;/p&gt;&lt;hr size=&quot;1&quot;&gt;&lt;div style=&quot;height:2px;&quot;&gt;&lt;/div&gt;" style="verticalAlign=top;align=left;overflow=fill;fontSize=12;fontFamily=Helvetica;html=1;whiteSpace=wrap;" parent="MI_CqLFvPXbOkAA7WH_L-9" vertex="1">
          <mxGeometry x="360" y="45" width="220" height="46" as="geometry" />
        </mxCell>
        <mxCell id="MI_CqLFvPXbOkAA7WH_L-47" value="&lt;p style=&quot;margin:0px;margin-top:4px;text-align:center;&quot;&gt;&lt;b&gt;PlayAreaComponent&lt;/b&gt;&lt;/p&gt;&lt;hr size=&quot;1&quot;&gt;&lt;div style=&quot;height:2px;&quot;&gt;&lt;/div&gt;" style="verticalAlign=top;align=left;overflow=fill;fontSize=12;fontFamily=Helvetica;html=1;whiteSpace=wrap;" parent="MI_CqLFvPXbOkAA7WH_L-9" vertex="1">
          <mxGeometry x="810" y="45" width="130" height="46" as="geometry" />
        </mxCell>
        <mxCell id="MI_CqLFvPXbOkAA7WH_L-48" value="&lt;p style=&quot;margin:0px;margin-top:4px;text-align:center;&quot;&gt;&lt;b&gt;SidebarComponent&lt;/b&gt;&lt;/p&gt;&lt;hr size=&quot;1&quot;&gt;&lt;div style=&quot;height:2px;&quot;&gt;&lt;/div&gt;" style="verticalAlign=top;align=left;overflow=fill;fontSize=12;fontFamily=Helvetica;html=1;whiteSpace=wrap;" parent="MI_CqLFvPXbOkAA7WH_L-9" vertex="1">
          <mxGeometry x="600" y="45" width="190" height="46" as="geometry" />
        </mxCell>
        <mxCell id="MI_CqLFvPXbOkAA7WH_L-52" value="&lt;p style=&quot;margin:0px;margin-top:4px;text-align:center;&quot;&gt;&lt;b&gt;CreationToolbarComponent&lt;/b&gt;&lt;/p&gt;&lt;hr size=&quot;1&quot;&gt;&lt;div style=&quot;height:2px;&quot;&gt;&lt;/div&gt;" style="verticalAlign=top;align=left;overflow=fill;fontSize=12;fontFamily=Helvetica;html=1;whiteSpace=wrap;" parent="MI_CqLFvPXbOkAA7WH_L-9" vertex="1">
          <mxGeometry x="30" y="147" width="190" height="46" as="geometry" />
        </mxCell>
        <mxCell id="MI_CqLFvPXbOkAA7WH_L-53" value="Use" style="endArrow=open;endSize=12;dashed=1;html=1;rounded=0;exitX=0.5;exitY=1;exitDx=0;exitDy=0;entryX=0.5;entryY=0;entryDx=0;entryDy=0;" parent="MI_CqLFvPXbOkAA7WH_L-9" source="MI_CqLFvPXbOkAA7WH_L-20" target="MI_CqLFvPXbOkAA7WH_L-52" edge="1">
          <mxGeometry width="160" relative="1" as="geometry">
            <mxPoint x="255" y="-44" as="sourcePoint" />
            <mxPoint x="253" y="80" as="targetPoint" />
          </mxGeometry>
        </mxCell>
        <mxCell id="MI_CqLFvPXbOkAA7WH_L-54" value="&lt;p style=&quot;margin:0px;margin-top:4px;text-align:center;&quot;&gt;&lt;b&gt;InfoCardComponent&lt;/b&gt;&lt;/p&gt;&lt;hr size=&quot;1&quot;&gt;&lt;div style=&quot;height:2px;&quot;&gt;&lt;/div&gt;" style="verticalAlign=top;align=left;overflow=fill;fontSize=12;fontFamily=Helvetica;html=1;whiteSpace=wrap;" parent="MI_CqLFvPXbOkAA7WH_L-9" vertex="1">
          <mxGeometry x="550" y="128" width="120" height="46" as="geometry" />
        </mxCell>
        <mxCell id="MI_CqLFvPXbOkAA7WH_L-55" value="Use" style="endArrow=open;endSize=12;dashed=1;html=1;rounded=0;exitX=0.477;exitY=1.032;exitDx=0;exitDy=0;entryX=0.5;entryY=0;entryDx=0;entryDy=0;exitPerimeter=0;" parent="MI_CqLFvPXbOkAA7WH_L-9" source="MI_CqLFvPXbOkAA7WH_L-37" target="MI_CqLFvPXbOkAA7WH_L-54" edge="1">
          <mxGeometry width="160" relative="1" as="geometry">
            <mxPoint x="265" y="126" as="sourcePoint" />
            <mxPoint x="265" y="160" as="targetPoint" />
          </mxGeometry>
        </mxCell>
        <mxCell id="MI_CqLFvPXbOkAA7WH_L-61" value="&lt;p style=&quot;margin:0px;margin-top:4px;text-align:center;&quot;&gt;&lt;b&gt;LiveChatComponent&lt;/b&gt;&lt;/p&gt;&lt;hr size=&quot;1&quot;&gt;&lt;div style=&quot;height:2px;&quot;&gt;&lt;/div&gt;" style="verticalAlign=top;align=left;overflow=fill;fontSize=12;fontFamily=Helvetica;html=1;whiteSpace=wrap;" parent="MI_CqLFvPXbOkAA7WH_L-9" vertex="1">
          <mxGeometry x="930" y="345" width="190" height="46" as="geometry" />
        </mxCell>
        <mxCell id="MI_CqLFvPXbOkAA7WH_L-62" value="Use" style="endArrow=open;endSize=12;dashed=1;html=1;rounded=0;exitX=0.5;exitY=1;exitDx=0;exitDy=0;entryX=0.5;entryY=0;entryDx=0;entryDy=0;" parent="MI_CqLFvPXbOkAA7WH_L-9" source="MI_CqLFvPXbOkAA7WH_L-48" target="MI_CqLFvPXbOkAA7WH_L-61" edge="1">
          <mxGeometry width="160" relative="1" as="geometry">
            <mxPoint x="475" y="102" as="sourcePoint" />
            <mxPoint x="475" y="145" as="targetPoint" />
          </mxGeometry>
        </mxCell>
        <mxCell id="MI_CqLFvPXbOkAA7WH_L-63" value="&lt;p style=&quot;margin:0px;margin-top:4px;text-align:center;&quot;&gt;&lt;b&gt;ModalDifferenceComponent&lt;/b&gt;&lt;/p&gt;&lt;hr size=&quot;1&quot;&gt;&lt;div style=&quot;height:2px;&quot;&gt;&lt;/div&gt;" style="verticalAlign=top;align=left;overflow=fill;fontSize=12;fontFamily=Helvetica;html=1;whiteSpace=wrap;" parent="MI_CqLFvPXbOkAA7WH_L-9" vertex="1">
          <mxGeometry x="270" y="174" width="220" height="46" as="geometry" />
        </mxCell>
        <mxCell id="MI_CqLFvPXbOkAA7WH_L-64" value="Use" style="endArrow=open;endSize=12;dashed=1;html=1;rounded=0;exitX=0.5;exitY=1;exitDx=0;exitDy=0;entryX=0.5;entryY=0;entryDx=0;entryDy=0;" parent="MI_CqLFvPXbOkAA7WH_L-9" source="MI_CqLFvPXbOkAA7WH_L-20" target="MI_CqLFvPXbOkAA7WH_L-63" edge="1">
          <mxGeometry width="160" relative="1" as="geometry">
            <mxPoint x="265" y="101" as="sourcePoint" />
            <mxPoint x="415" y="155" as="targetPoint" />
          </mxGeometry>
        </mxCell>
        <mxCell id="MI_CqLFvPXbOkAA7WH_L-65" value="&lt;p style=&quot;margin:0px;margin-top:4px;text-align:center;&quot;&gt;&lt;b&gt;ModalEndgameComponent&lt;/b&gt;&lt;/p&gt;&lt;hr size=&quot;1&quot;&gt;&lt;div style=&quot;height:2px;&quot;&gt;&lt;/div&gt;" style="verticalAlign=top;align=left;overflow=fill;fontSize=12;fontFamily=Helvetica;html=1;whiteSpace=wrap;" parent="MI_CqLFvPXbOkAA7WH_L-9" vertex="1">
          <mxGeometry x="1030" y="174" width="220" height="46" as="geometry" />
        </mxCell>
        <mxCell id="MI_CqLFvPXbOkAA7WH_L-66" value="&lt;p style=&quot;margin:0px;margin-top:4px;text-align:center;&quot;&gt;&lt;b&gt;ModalUsernameComponent&lt;/b&gt;&lt;/p&gt;&lt;hr size=&quot;1&quot;&gt;&lt;div style=&quot;height:2px;&quot;&gt;&lt;/div&gt;" style="verticalAlign=top;align=left;overflow=fill;fontSize=12;fontFamily=Helvetica;html=1;whiteSpace=wrap;" parent="MI_CqLFvPXbOkAA7WH_L-9" vertex="1">
          <mxGeometry x="310" y="305" width="220" height="46" as="geometry" />
        </mxCell>
        <mxCell id="MI_CqLFvPXbOkAA7WH_L-67" value="Use" style="endArrow=open;endSize=12;dashed=1;html=1;rounded=0;exitX=0.5;exitY=1;exitDx=0;exitDy=0;entryX=0.5;entryY=0;entryDx=0;entryDy=0;" parent="MI_CqLFvPXbOkAA7WH_L-9" source="MI_CqLFvPXbOkAA7WH_L-54" target="MI_CqLFvPXbOkAA7WH_L-66" edge="1">
          <mxGeometry width="160" relative="1" as="geometry">
            <mxPoint x="475" y="102" as="sourcePoint" />
            <mxPoint x="625" y="155" as="targetPoint" />
          </mxGeometry>
        </mxCell>
        <mxCell id="MI_CqLFvPXbOkAA7WH_L-90" value="&lt;p style=&quot;margin:0px;margin-top:4px;text-align:center;&quot;&gt;&lt;b&gt;TimerComponent&lt;/b&gt;&lt;/p&gt;&lt;hr size=&quot;1&quot;&gt;&lt;div style=&quot;height:2px;&quot;&gt;&lt;/div&gt;" style="verticalAlign=top;align=left;overflow=fill;fontSize=12;fontFamily=Helvetica;html=1;whiteSpace=wrap;" parent="MI_CqLFvPXbOkAA7WH_L-9" vertex="1">
          <mxGeometry x="310" y="375" width="115" height="46" as="geometry" />
        </mxCell>
        <mxCell id="MI_CqLFvPXbOkAA7WH_L-12" value="" style="group" parent="WIyWlLk6GJQsqaUBKTNV-1" vertex="1" connectable="0">
          <mxGeometry x="-740" y="760" width="1180" height="240" as="geometry" />
        </mxCell>
        <mxCell id="MI_CqLFvPXbOkAA7WH_L-13" value="" style="shape=folder;fontStyle=1;spacingTop=10;tabWidth=80;tabHeight=20;tabPosition=left;html=1;whiteSpace=wrap;" parent="MI_CqLFvPXbOkAA7WH_L-12" vertex="1">
          <mxGeometry width="1180" height="240" as="geometry" />
        </mxCell>
        <mxCell id="MI_CqLFvPXbOkAA7WH_L-14" value="Services" style="text;align=center;fontStyle=1;verticalAlign=middle;spacingLeft=3;spacingRight=3;strokeColor=none;rotatable=0;points=[[0,0.5],[1,0.5]];portConstraint=eastwest;html=1;" parent="MI_CqLFvPXbOkAA7WH_L-12" vertex="1">
          <mxGeometry x="9.996666666666663" width="61.7479674796748" height="21.818181818181813" as="geometry" />
        </mxCell>
        <mxCell id="MI_CqLFvPXbOkAA7WH_L-68" value="&lt;p style=&quot;margin:0px;margin-top:4px;text-align:center;&quot;&gt;&lt;b&gt;BlinkService&lt;/b&gt;&lt;/p&gt;&lt;hr size=&quot;1&quot;&gt;&lt;div style=&quot;height:2px;&quot;&gt;&lt;/div&gt;" style="verticalAlign=top;align=left;overflow=fill;fontSize=12;fontFamily=Helvetica;html=1;whiteSpace=wrap;" parent="MI_CqLFvPXbOkAA7WH_L-12" vertex="1">
          <mxGeometry x="350" y="80" width="98.26" height="46" as="geometry" />
        </mxCell>
        <mxCell id="MI_CqLFvPXbOkAA7WH_L-69" value="&lt;p style=&quot;margin:0px;margin-top:4px;text-align:center;&quot;&gt;&lt;b&gt;ChatService&lt;/b&gt;&lt;/p&gt;&lt;hr size=&quot;1&quot;&gt;&lt;div style=&quot;height:2px;&quot;&gt;&lt;/div&gt;" style="verticalAlign=top;align=left;overflow=fill;fontSize=12;fontFamily=Helvetica;html=1;whiteSpace=wrap;" parent="MI_CqLFvPXbOkAA7WH_L-12" vertex="1">
          <mxGeometry x="700" y="80" width="98.26" height="46" as="geometry" />
        </mxCell>
        <mxCell id="MI_CqLFvPXbOkAA7WH_L-70" value="&lt;p style=&quot;margin:0px;margin-top:4px;text-align:center;&quot;&gt;&lt;b&gt;DrawService&lt;/b&gt;&lt;/p&gt;&lt;hr size=&quot;1&quot;&gt;&lt;div style=&quot;height:2px;&quot;&gt;&lt;/div&gt;" style="verticalAlign=top;align=left;overflow=fill;fontSize=12;fontFamily=Helvetica;html=1;whiteSpace=wrap;" parent="MI_CqLFvPXbOkAA7WH_L-12" vertex="1">
          <mxGeometry x="50" y="80" width="98.26" height="46" as="geometry" />
        </mxCell>
        <mxCell id="MI_CqLFvPXbOkAA7WH_L-71" value="&lt;p style=&quot;margin:0px;margin-top:4px;text-align:center;&quot;&gt;&lt;b&gt;GameplayService&lt;/b&gt;&lt;/p&gt;&lt;hr size=&quot;1&quot;&gt;&lt;div style=&quot;height:2px;&quot;&gt;&lt;/div&gt;" style="verticalAlign=top;align=left;overflow=fill;fontSize=12;fontFamily=Helvetica;html=1;whiteSpace=wrap;" parent="MI_CqLFvPXbOkAA7WH_L-12" vertex="1">
          <mxGeometry x="520" y="80" width="108.26" height="46" as="geometry" />
        </mxCell>
        <mxCell id="MI_CqLFvPXbOkAA7WH_L-72" value="&lt;p style=&quot;margin:0px;margin-top:4px;text-align:center;&quot;&gt;&lt;b&gt;GameConfigurationService&lt;/b&gt;&lt;/p&gt;&lt;hr size=&quot;1&quot;&gt;&lt;div style=&quot;height:2px;&quot;&gt;&lt;/div&gt;" style="verticalAlign=top;align=left;overflow=fill;fontSize=12;fontFamily=Helvetica;html=1;whiteSpace=wrap;" parent="MI_CqLFvPXbOkAA7WH_L-12" vertex="1">
          <mxGeometry x="1000" y="80" width="166.52" height="46" as="geometry" />
        </mxCell>
        <mxCell id="MI_CqLFvPXbOkAA7WH_L-73" value="&lt;p style=&quot;margin:0px;margin-top:4px;text-align:center;&quot;&gt;&lt;b&gt;GameTemplateService&lt;/b&gt;&lt;/p&gt;" style="verticalAlign=top;align=left;overflow=fill;fontSize=12;fontFamily=Helvetica;html=1;whiteSpace=wrap;" parent="MI_CqLFvPXbOkAA7WH_L-12" vertex="1">
          <mxGeometry x="840" y="80" width="148.26" height="46" as="geometry" />
        </mxCell>
        <mxCell id="MI_CqLFvPXbOkAA7WH_L-74" value="&lt;p style=&quot;margin:0px;margin-top:4px;text-align:center;&quot;&gt;&lt;b&gt;ImageService&lt;/b&gt;&lt;/p&gt;&lt;hr size=&quot;1&quot;&gt;&lt;div style=&quot;height:2px;&quot;&gt;&lt;/div&gt;" style="verticalAlign=top;align=left;overflow=fill;fontSize=12;fontFamily=Helvetica;html=1;whiteSpace=wrap;" parent="MI_CqLFvPXbOkAA7WH_L-12" vertex="1">
          <mxGeometry x="221.74" y="80" width="98.26" height="46" as="geometry" />
        </mxCell>
        <mxCell id="MI_CqLFvPXbOkAA7WH_L-75" value="&lt;p style=&quot;margin:0px;margin-top:4px;text-align:center;&quot;&gt;&lt;b&gt;SocketIOService&lt;/b&gt;&lt;/p&gt;&lt;hr size=&quot;1&quot;&gt;&lt;div style=&quot;height:2px;&quot;&gt;&lt;/div&gt;" style="verticalAlign=top;align=left;overflow=fill;fontSize=12;fontFamily=Helvetica;html=1;whiteSpace=wrap;" parent="MI_CqLFvPXbOkAA7WH_L-12" vertex="1">
          <mxGeometry x="770" y="180" width="98.26" height="46" as="geometry" />
        </mxCell>
        <mxCell id="MI_CqLFvPXbOkAA7WH_L-76" value="&lt;p style=&quot;margin:0px;margin-top:4px;text-align:center;&quot;&gt;&lt;b&gt;ImagesDifferenceService&lt;/b&gt;&lt;/p&gt;&lt;hr size=&quot;1&quot;&gt;&lt;div style=&quot;height:2px;&quot;&gt;&lt;/div&gt;" style="verticalAlign=top;align=left;overflow=fill;fontSize=12;fontFamily=Helvetica;html=1;whiteSpace=wrap;" parent="MI_CqLFvPXbOkAA7WH_L-12" vertex="1">
          <mxGeometry x="320" y="180" width="148.26" height="46" as="geometry" />
        </mxCell>
        <mxCell id="MI_CqLFvPXbOkAA7WH_L-79" value="Use" style="endArrow=open;endSize=12;dashed=1;html=1;rounded=0;exitX=0;exitY=0.5;exitDx=0;exitDy=0;entryX=1;entryY=0.5;entryDx=0;entryDy=0;" parent="MI_CqLFvPXbOkAA7WH_L-12" source="MI_CqLFvPXbOkAA7WH_L-71" target="MI_CqLFvPXbOkAA7WH_L-68" edge="1">
          <mxGeometry width="160" relative="1" as="geometry">
            <mxPoint x="255" y="-264" as="sourcePoint" />
            <mxPoint x="405" y="-210" as="targetPoint" />
          </mxGeometry>
        </mxCell>
        <mxCell id="MI_CqLFvPXbOkAA7WH_L-81" value="Use" style="endArrow=open;endSize=12;dashed=1;html=1;rounded=0;exitX=1;exitY=0.5;exitDx=0;exitDy=0;entryX=0;entryY=0.5;entryDx=0;entryDy=0;" parent="MI_CqLFvPXbOkAA7WH_L-12" source="MI_CqLFvPXbOkAA7WH_L-71" target="MI_CqLFvPXbOkAA7WH_L-69" edge="1">
          <mxGeometry width="160" relative="1" as="geometry">
            <mxPoint x="454" y="190" as="sourcePoint" />
            <mxPoint x="409" y="136" as="targetPoint" />
          </mxGeometry>
        </mxCell>
        <mxCell id="MI_CqLFvPXbOkAA7WH_L-82" value="Use" style="endArrow=open;endSize=12;dashed=1;html=1;rounded=0;exitX=0.5;exitY=1;exitDx=0;exitDy=0;entryX=0.5;entryY=0;entryDx=0;entryDy=0;" parent="MI_CqLFvPXbOkAA7WH_L-12" source="MI_CqLFvPXbOkAA7WH_L-74" target="MI_CqLFvPXbOkAA7WH_L-76" edge="1">
          <mxGeometry width="160" relative="1" as="geometry">
            <mxPoint x="632" y="190" as="sourcePoint" />
            <mxPoint x="409" y="136" as="targetPoint" />
          </mxGeometry>
        </mxCell>
        <mxCell id="MI_CqLFvPXbOkAA7WH_L-87" value="Use" style="endArrow=open;endSize=12;dashed=1;html=1;rounded=0;exitX=1;exitY=0.5;exitDx=0;exitDy=0;entryX=0;entryY=0.5;entryDx=0;entryDy=0;" parent="MI_CqLFvPXbOkAA7WH_L-12" source="MI_CqLFvPXbOkAA7WH_L-70" target="MI_CqLFvPXbOkAA7WH_L-74" edge="1">
          <mxGeometry width="160" relative="1" as="geometry">
            <mxPoint x="281" y="136" as="sourcePoint" />
            <mxPoint x="404" y="190" as="targetPoint" />
          </mxGeometry>
        </mxCell>
        <mxCell id="MI_CqLFvPXbOkAA7WH_L-102" value="Use" style="endArrow=open;endSize=12;dashed=1;html=1;rounded=0;exitX=0.5;exitY=1;exitDx=0;exitDy=0;entryX=0.5;entryY=0;entryDx=0;entryDy=0;" parent="MI_CqLFvPXbOkAA7WH_L-12" source="MI_CqLFvPXbOkAA7WH_L-69" target="MI_CqLFvPXbOkAA7WH_L-75" edge="1">
          <mxGeometry width="160" relative="1" as="geometry">
            <mxPoint x="281" y="136" as="sourcePoint" />
            <mxPoint x="404" y="190" as="targetPoint" />
          </mxGeometry>
        </mxCell>
        <mxCell id="MI_CqLFvPXbOkAA7WH_L-103" value="Use" style="endArrow=open;endSize=12;dashed=1;html=1;rounded=0;exitX=0.5;exitY=1;exitDx=0;exitDy=0;entryX=0.5;entryY=0;entryDx=0;entryDy=0;" parent="MI_CqLFvPXbOkAA7WH_L-12" source="MI_CqLFvPXbOkAA7WH_L-71" target="MI_CqLFvPXbOkAA7WH_L-75" edge="1">
          <mxGeometry width="160" relative="1" as="geometry">
            <mxPoint x="291" y="146" as="sourcePoint" />
            <mxPoint x="414" y="200" as="targetPoint" />
          </mxGeometry>
        </mxCell>
        <mxCell id="MI_CqLFvPXbOkAA7WH_L-34" value="Use" style="endArrow=open;endSize=12;dashed=1;html=1;rounded=0;exitX=0.5;exitY=1;exitDx=0;exitDy=0;entryX=0.438;entryY=-0.008;entryDx=0;entryDy=0;entryPerimeter=0;" parent="WIyWlLk6GJQsqaUBKTNV-1" source="MI_CqLFvPXbOkAA7WH_L-16" target="MI_CqLFvPXbOkAA7WH_L-20" edge="1">
          <mxGeometry width="160" relative="1" as="geometry">
            <mxPoint x="-350" y="410" as="sourcePoint" />
            <mxPoint x="-190" y="410" as="targetPoint" />
          </mxGeometry>
        </mxCell>
        <mxCell id="MI_CqLFvPXbOkAA7WH_L-36" value="Use" style="endArrow=open;endSize=12;dashed=1;html=1;rounded=0;exitX=0.114;exitY=1.008;exitDx=0;exitDy=0;exitPerimeter=0;entryX=0.75;entryY=0;entryDx=0;entryDy=0;" parent="WIyWlLk6GJQsqaUBKTNV-1" source="MI_CqLFvPXbOkAA7WH_L-5" target="MI_CqLFvPXbOkAA7WH_L-35" edge="1">
          <mxGeometry width="160" relative="1" as="geometry">
            <mxPoint x="-495" y="216" as="sourcePoint" />
            <mxPoint x="-485" y="340" as="targetPoint" />
          </mxGeometry>
        </mxCell>
        <mxCell id="MI_CqLFvPXbOkAA7WH_L-38" value="Use" style="endArrow=open;endSize=12;dashed=1;html=1;rounded=0;exitX=0.5;exitY=1;exitDx=0;exitDy=0;entryX=0.296;entryY=-0.008;entryDx=0;entryDy=0;entryPerimeter=0;" parent="WIyWlLk6GJQsqaUBKTNV-1" source="MI_CqLFvPXbOkAA7WH_L-19" target="MI_CqLFvPXbOkAA7WH_L-37" edge="1">
          <mxGeometry x="-0.0051" width="160" relative="1" as="geometry">
            <mxPoint x="-495" y="216" as="sourcePoint" />
            <mxPoint x="-485" y="340" as="targetPoint" />
            <mxPoint as="offset" />
          </mxGeometry>
        </mxCell>
        <mxCell id="MI_CqLFvPXbOkAA7WH_L-49" value="Use" style="endArrow=open;endSize=12;dashed=1;html=1;rounded=0;entryX=0.333;entryY=-0.026;entryDx=0;entryDy=0;entryPerimeter=0;exitX=0.75;exitY=1;exitDx=0;exitDy=0;" parent="WIyWlLk6GJQsqaUBKTNV-1" source="MI_CqLFvPXbOkAA7WH_L-17" target="MI_CqLFvPXbOkAA7WH_L-47" edge="1">
          <mxGeometry x="-0.0051" width="160" relative="1" as="geometry">
            <mxPoint x="-315" y="216" as="sourcePoint" />
            <mxPoint x="-312" y="340" as="targetPoint" />
            <mxPoint as="offset" />
          </mxGeometry>
        </mxCell>
        <mxCell id="MI_CqLFvPXbOkAA7WH_L-50" value="Use" style="endArrow=open;endSize=12;dashed=1;html=1;rounded=0;exitX=0.396;exitY=1.051;exitDx=0;exitDy=0;entryX=0.47;entryY=-0.008;entryDx=0;entryDy=0;exitPerimeter=0;entryPerimeter=0;" parent="WIyWlLk6GJQsqaUBKTNV-1" source="MI_CqLFvPXbOkAA7WH_L-17" target="MI_CqLFvPXbOkAA7WH_L-48" edge="1">
          <mxGeometry x="-0.0051" width="160" relative="1" as="geometry">
            <mxPoint x="-305" y="226" as="sourcePoint" />
            <mxPoint x="-302" y="350" as="targetPoint" />
            <mxPoint as="offset" />
          </mxGeometry>
        </mxCell>
        <mxCell id="MI_CqLFvPXbOkAA7WH_L-51" value="Use" style="endArrow=open;endSize=12;dashed=1;html=1;rounded=0;entryX=0.58;entryY=-0.008;entryDx=0;entryDy=0;entryPerimeter=0;exitX=0.203;exitY=0.995;exitDx=0;exitDy=0;exitPerimeter=0;" parent="WIyWlLk6GJQsqaUBKTNV-1" source="MI_CqLFvPXbOkAA7WH_L-18" target="MI_CqLFvPXbOkAA7WH_L-37" edge="1">
          <mxGeometry x="-0.0051" width="160" relative="1" as="geometry">
            <mxPoint x="-210" y="260" as="sourcePoint" />
            <mxPoint x="-292" y="360" as="targetPoint" />
            <mxPoint as="offset" />
          </mxGeometry>
        </mxCell>
        <mxCell id="MI_CqLFvPXbOkAA7WH_L-80" value="Use" style="endArrow=open;endSize=12;dashed=1;html=1;rounded=0;exitX=0.5;exitY=1;exitDx=0;exitDy=0;entryX=0.5;entryY=0;entryDx=0;entryDy=0;" parent="WIyWlLk6GJQsqaUBKTNV-1" source="MI_CqLFvPXbOkAA7WH_L-61" target="MI_CqLFvPXbOkAA7WH_L-69" edge="1">
          <mxGeometry width="160" relative="1" as="geometry">
            <mxPoint x="-125" y="466" as="sourcePoint" />
            <mxPoint x="-125" y="520" as="targetPoint" />
          </mxGeometry>
        </mxCell>
        <mxCell id="MI_CqLFvPXbOkAA7WH_L-83" value="Use" style="endArrow=open;endSize=12;dashed=1;html=1;rounded=0;exitX=0.5;exitY=1;exitDx=0;exitDy=0;entryX=0.5;entryY=0;entryDx=0;entryDy=0;" parent="WIyWlLk6GJQsqaUBKTNV-1" source="MI_CqLFvPXbOkAA7WH_L-20" target="MI_CqLFvPXbOkAA7WH_L-74" edge="1">
          <mxGeometry width="160" relative="1" as="geometry">
            <mxPoint x="-485" y="366" as="sourcePoint" />
            <mxPoint x="-335" y="420" as="targetPoint" />
          </mxGeometry>
        </mxCell>
        <mxCell id="MI_CqLFvPXbOkAA7WH_L-85" value="Use" style="endArrow=open;endSize=12;dashed=1;html=1;rounded=0;exitX=0.5;exitY=1;exitDx=0;exitDy=0;entryX=0.5;entryY=0;entryDx=0;entryDy=0;" parent="WIyWlLk6GJQsqaUBKTNV-1" source="MI_CqLFvPXbOkAA7WH_L-52" target="MI_CqLFvPXbOkAA7WH_L-74" edge="1">
          <mxGeometry width="160" relative="1" as="geometry">
            <mxPoint x="-485" y="366" as="sourcePoint" />
            <mxPoint x="-335" y="420" as="targetPoint" />
          </mxGeometry>
        </mxCell>
        <mxCell id="MI_CqLFvPXbOkAA7WH_L-86" value="Use" style="endArrow=open;endSize=12;dashed=1;html=1;rounded=0;exitX=0.451;exitY=0.985;exitDx=0;exitDy=0;entryX=0.5;entryY=0;entryDx=0;entryDy=0;exitPerimeter=0;" parent="WIyWlLk6GJQsqaUBKTNV-1" source="MI_CqLFvPXbOkAA7WH_L-47" target="MI_CqLFvPXbOkAA7WH_L-74" edge="1">
          <mxGeometry width="160" relative="1" as="geometry">
            <mxPoint x="-45" y="366" as="sourcePoint" />
            <mxPoint x="95" y="420" as="targetPoint" />
          </mxGeometry>
        </mxCell>
        <mxCell id="MI_CqLFvPXbOkAA7WH_L-88" value="Use" style="endArrow=open;endSize=12;dashed=1;html=1;rounded=0;exitX=0.5;exitY=1;exitDx=0;exitDy=0;entryX=0.5;entryY=0;entryDx=0;entryDy=0;" parent="WIyWlLk6GJQsqaUBKTNV-1" source="MI_CqLFvPXbOkAA7WH_L-52" target="MI_CqLFvPXbOkAA7WH_L-70" edge="1">
          <mxGeometry width="160" relative="1" as="geometry">
            <mxPoint x="-615" y="468" as="sourcePoint" />
            <mxPoint x="-459" y="710" as="targetPoint" />
          </mxGeometry>
        </mxCell>
        <mxCell id="MI_CqLFvPXbOkAA7WH_L-89" value="Use" style="endArrow=open;endSize=12;dashed=1;html=1;rounded=0;exitX=0.5;exitY=1;exitDx=0;exitDy=0;entryX=1;entryY=0;entryDx=0;entryDy=0;" parent="WIyWlLk6GJQsqaUBKTNV-1" source="MI_CqLFvPXbOkAA7WH_L-20" target="MI_CqLFvPXbOkAA7WH_L-70" edge="1">
          <mxGeometry width="160" relative="1" as="geometry">
            <mxPoint x="-485" y="366" as="sourcePoint" />
            <mxPoint x="-459" y="710" as="targetPoint" />
          </mxGeometry>
        </mxCell>
        <mxCell id="MI_CqLFvPXbOkAA7WH_L-91" value="Use" style="endArrow=open;endSize=12;dashed=1;html=1;rounded=0;exitX=0.5;exitY=1;exitDx=0;exitDy=0;entryX=0.5;entryY=0;entryDx=0;entryDy=0;" parent="WIyWlLk6GJQsqaUBKTNV-1" source="MI_CqLFvPXbOkAA7WH_L-90" target="MI_CqLFvPXbOkAA7WH_L-71" edge="1">
          <mxGeometry width="160" relative="1" as="geometry">
            <mxPoint x="125" y="468" as="sourcePoint" />
            <mxPoint x="19" y="710" as="targetPoint" />
          </mxGeometry>
        </mxCell>
        <mxCell id="MI_CqLFvPXbOkAA7WH_L-92" value="Use" style="endArrow=open;endSize=12;dashed=1;html=1;rounded=0;entryX=0.5;entryY=0;entryDx=0;entryDy=0;exitX=0.562;exitY=1.029;exitDx=0;exitDy=0;exitPerimeter=0;" parent="WIyWlLk6GJQsqaUBKTNV-1" source="MI_CqLFvPXbOkAA7WH_L-17" target="MI_CqLFvPXbOkAA7WH_L-71" edge="1">
          <mxGeometry x="-0.0051" width="160" relative="1" as="geometry">
            <mxPoint x="153" y="216" as="sourcePoint" />
            <mxPoint x="113" y="319" as="targetPoint" />
            <mxPoint as="offset" />
          </mxGeometry>
        </mxCell>
        <mxCell id="MI_CqLFvPXbOkAA7WH_L-93" value="Use" style="endArrow=open;endSize=12;dashed=1;html=1;rounded=0;exitX=0.5;exitY=1;exitDx=0;exitDy=0;entryX=0.5;entryY=0;entryDx=0;entryDy=0;" parent="WIyWlLk6GJQsqaUBKTNV-1" source="MI_CqLFvPXbOkAA7WH_L-48" target="MI_CqLFvPXbOkAA7WH_L-71" edge="1">
          <mxGeometry width="160" relative="1" as="geometry">
            <mxPoint x="-45" y="366" as="sourcePoint" />
            <mxPoint x="125" y="422" as="targetPoint" />
          </mxGeometry>
        </mxCell>
        <mxCell id="MI_CqLFvPXbOkAA7WH_L-94" value="Use" style="endArrow=open;endSize=12;dashed=1;html=1;rounded=0;exitX=0.5;exitY=1;exitDx=0;exitDy=0;entryX=0.5;entryY=0;entryDx=0;entryDy=0;" parent="WIyWlLk6GJQsqaUBKTNV-1" source="MI_CqLFvPXbOkAA7WH_L-47" target="MI_CqLFvPXbOkAA7WH_L-71" edge="1">
          <mxGeometry width="160" relative="1" as="geometry">
            <mxPoint x="129" y="365" as="sourcePoint" />
            <mxPoint x="-459" y="710" as="targetPoint" />
          </mxGeometry>
        </mxCell>
        <mxCell id="MI_CqLFvPXbOkAA7WH_L-95" value="Use" style="endArrow=open;endSize=12;dashed=1;html=1;rounded=0;exitX=0.5;exitY=1;exitDx=0;exitDy=0;entryX=0.75;entryY=0;entryDx=0;entryDy=0;" parent="WIyWlLk6GJQsqaUBKTNV-1" source="MI_CqLFvPXbOkAA7WH_L-61" target="MI_CqLFvPXbOkAA7WH_L-71" edge="1">
          <mxGeometry width="160" relative="1" as="geometry">
            <mxPoint x="125" y="468" as="sourcePoint" />
            <mxPoint x="-160" y="700" as="targetPoint" />
          </mxGeometry>
        </mxCell>
        <mxCell id="MI_CqLFvPXbOkAA7WH_L-96" value="Use" style="endArrow=open;endSize=12;dashed=1;html=1;rounded=0;exitX=0.5;exitY=1;exitDx=0;exitDy=0;entryX=0.5;entryY=0;entryDx=0;entryDy=0;" parent="WIyWlLk6GJQsqaUBKTNV-1" source="MI_CqLFvPXbOkAA7WH_L-37" target="MI_CqLFvPXbOkAA7WH_L-73" edge="1">
          <mxGeometry width="160" relative="1" as="geometry">
            <mxPoint x="-275" y="367" as="sourcePoint" />
            <mxPoint x="-125" y="420" as="targetPoint" />
          </mxGeometry>
        </mxCell>
        <mxCell id="MI_CqLFvPXbOkAA7WH_L-97" value="Use" style="endArrow=open;endSize=12;dashed=1;html=1;rounded=0;exitX=0.5;exitY=1;exitDx=0;exitDy=0;entryX=0.25;entryY=0;entryDx=0;entryDy=0;" parent="WIyWlLk6GJQsqaUBKTNV-1" source="MI_CqLFvPXbOkAA7WH_L-54" target="MI_CqLFvPXbOkAA7WH_L-73" edge="1">
          <mxGeometry width="160" relative="1" as="geometry">
            <mxPoint x="-210" y="556" as="sourcePoint" />
            <mxPoint x="-320" y="580" as="targetPoint" />
          </mxGeometry>
        </mxCell>
        <mxCell id="MI_CqLFvPXbOkAA7WH_L-98" value="Use" style="endArrow=open;endSize=12;dashed=1;html=1;rounded=0;exitX=0.5;exitY=1;exitDx=0;exitDy=0;entryX=0.5;entryY=0;entryDx=0;entryDy=0;" parent="WIyWlLk6GJQsqaUBKTNV-1" source="MI_CqLFvPXbOkAA7WH_L-63" target="MI_CqLFvPXbOkAA7WH_L-73" edge="1">
          <mxGeometry width="160" relative="1" as="geometry">
            <mxPoint x="-130" y="446" as="sourcePoint" />
            <mxPoint x="-320" y="580" as="targetPoint" />
          </mxGeometry>
        </mxCell>
        <mxCell id="MI_CqLFvPXbOkAA7WH_L-99" value="Use" style="endArrow=open;endSize=12;dashed=1;html=1;rounded=0;exitX=0.5;exitY=1;exitDx=0;exitDy=0;entryX=0.5;entryY=0;entryDx=0;entryDy=0;" parent="WIyWlLk6GJQsqaUBKTNV-1" source="MI_CqLFvPXbOkAA7WH_L-47" target="MI_CqLFvPXbOkAA7WH_L-73" edge="1">
          <mxGeometry width="160" relative="1" as="geometry">
            <mxPoint x="135" y="366" as="sourcePoint" />
            <mxPoint x="-156" y="850" as="targetPoint" />
          </mxGeometry>
        </mxCell>
        <mxCell id="MI_CqLFvPXbOkAA7WH_L-100" value="Use" style="endArrow=open;endSize=12;dashed=1;html=1;rounded=0;exitX=0.5;exitY=1;exitDx=0;exitDy=0;entryX=0.5;entryY=0;entryDx=0;entryDy=0;" parent="WIyWlLk6GJQsqaUBKTNV-1" source="MI_CqLFvPXbOkAA7WH_L-48" target="MI_CqLFvPXbOkAA7WH_L-73" edge="1">
          <mxGeometry width="160" relative="1" as="geometry">
            <mxPoint x="-45" y="366" as="sourcePoint" />
            <mxPoint x="285" y="620" as="targetPoint" />
          </mxGeometry>
        </mxCell>
        <mxCell id="MI_CqLFvPXbOkAA7WH_L-101" value="Use" style="endArrow=open;endSize=12;dashed=1;html=1;rounded=0;entryX=0.5;entryY=0;entryDx=0;entryDy=0;exitX=0.5;exitY=1;exitDx=0;exitDy=0;" parent="WIyWlLk6GJQsqaUBKTNV-1" source="MI_CqLFvPXbOkAA7WH_L-18" target="MI_CqLFvPXbOkAA7WH_L-72" edge="1">
          <mxGeometry x="-0.0051" width="160" relative="1" as="geometry">
            <mxPoint x="155" y="213" as="sourcePoint" />
            <mxPoint x="-252" y="320" as="targetPoint" />
            <mxPoint as="offset" />
          </mxGeometry>
        </mxCell>
        <mxCell id="MI_CqLFvPXbOkAA7WH_L-105" value="Use" style="endArrow=open;endSize=12;dashed=1;html=1;rounded=0;exitX=1;exitY=0;exitDx=0;exitDy=0;entryX=0;entryY=0.5;entryDx=0;entryDy=0;" parent="WIyWlLk6GJQsqaUBKTNV-1" source="MI_CqLFvPXbOkAA7WH_L-71" target="MI_CqLFvPXbOkAA7WH_L-65" edge="1">
          <mxGeometry width="160" relative="1" as="geometry">
            <mxPoint x="-102" y="873" as="sourcePoint" />
            <mxPoint x="-30" y="873" as="targetPoint" />
          </mxGeometry>
        </mxCell>
        <mxCell id="sZbaFN6az_ifyVlc9dtm-0" value="" style="shape=folder;fontStyle=1;spacingTop=10;tabWidth=50;tabHeight=20;tabPosition=left;html=1;whiteSpace=wrap;" parent="WIyWlLk6GJQsqaUBKTNV-1" vertex="1">
          <mxGeometry x="-790" y="60" width="1470" height="1010" as="geometry" />
        </mxCell>
        <mxCell id="sZbaFN6az_ifyVlc9dtm-1" value="Client" style="text;align=center;fontStyle=1;verticalAlign=middle;spacingLeft=3;spacingRight=3;strokeColor=none;rotatable=0;points=[[0,0.5],[1,0.5]];portConstraint=eastwest;html=1;" parent="WIyWlLk6GJQsqaUBKTNV-1" vertex="1">
          <mxGeometry x="-810" y="60" width="80" height="26" as="geometry" />
        </mxCell>
        <mxCell id="sZbaFN6az_ifyVlc9dtm-2" value="" style="group" parent="WIyWlLk6GJQsqaUBKTNV-1" vertex="1" connectable="0">
          <mxGeometry x="-750" y="110" width="1400" height="190" as="geometry" />
        </mxCell>
        <mxCell id="sZbaFN6az_ifyVlc9dtm-3" value="" style="shape=folder;fontStyle=1;spacingTop=10;tabWidth=50;tabHeight=20;tabPosition=left;html=1;whiteSpace=wrap;" parent="sZbaFN6az_ifyVlc9dtm-2" vertex="1">
          <mxGeometry width="1400" height="137.22" as="geometry" />
        </mxCell>
        <mxCell id="sZbaFN6az_ifyVlc9dtm-4" value="Pages" style="text;align=center;fontStyle=1;verticalAlign=middle;spacingLeft=3;spacingRight=3;strokeColor=none;rotatable=0;points=[[0,0.5],[1,0.5]];portConstraint=eastwest;html=1;" parent="sZbaFN6az_ifyVlc9dtm-2" vertex="1">
          <mxGeometry width="50" height="15.737373737373739" as="geometry" />
        </mxCell>
        <mxCell id="sZbaFN6az_ifyVlc9dtm-5" value="&lt;p style=&quot;margin:0px;margin-top:4px;text-align:center;&quot;&gt;&lt;b&gt;MainPageComponent&lt;/b&gt;&lt;/p&gt;&lt;hr size=&quot;1&quot;&gt;&lt;div style=&quot;height:2px;&quot;&gt;&lt;/div&gt;" style="verticalAlign=top;align=left;overflow=fill;fontSize=12;fontFamily=Helvetica;html=1;whiteSpace=wrap;" parent="sZbaFN6az_ifyVlc9dtm-2" vertex="1">
          <mxGeometry x="1014.21" y="59.11" width="130" height="48.55555555555556" as="geometry" />
        </mxCell>
        <mxCell id="sZbaFN6az_ifyVlc9dtm-6" value="&lt;p style=&quot;margin:0px;margin-top:4px;text-align:center;&quot;&gt;&lt;b&gt;CreationPageComponent&lt;/b&gt;&lt;/p&gt;&lt;hr size=&quot;1&quot;&gt;&lt;div style=&quot;height:2px;&quot;&gt;&lt;/div&gt;" style="verticalAlign=top;align=left;overflow=fill;fontSize=12;fontFamily=Helvetica;html=1;whiteSpace=wrap;" parent="sZbaFN6az_ifyVlc9dtm-2" vertex="1">
          <mxGeometry x="20" y="55.941111111111105" width="150" height="46.44444444444445" as="geometry" />
        </mxCell>
        <mxCell id="sZbaFN6az_ifyVlc9dtm-7" value="&lt;p style=&quot;margin:0px;margin-top:4px;text-align:center;&quot;&gt;&lt;b&gt;GamePageComponent&lt;/b&gt;&lt;/p&gt;&lt;hr size=&quot;1&quot;&gt;&lt;div style=&quot;height:2px;&quot;&gt;&lt;/div&gt;" style="verticalAlign=top;align=left;overflow=fill;fontSize=12;fontFamily=Helvetica;html=1;whiteSpace=wrap;" parent="sZbaFN6az_ifyVlc9dtm-2" vertex="1">
          <mxGeometry x="850" y="59.1111111111111" width="150" height="46.44444444444445" as="geometry" />
        </mxCell>
        <mxCell id="sZbaFN6az_ifyVlc9dtm-8" value="&lt;p style=&quot;margin:0px;margin-top:4px;text-align:center;&quot;&gt;&lt;b&gt;GameConfigurationPageComponent&lt;/b&gt;&lt;/p&gt;&lt;hr size=&quot;1&quot;&gt;&lt;div style=&quot;height:2px;&quot;&gt;&lt;/div&gt;" style="verticalAlign=top;align=left;overflow=fill;fontSize=12;fontFamily=Helvetica;html=1;whiteSpace=wrap;" parent="sZbaFN6az_ifyVlc9dtm-2" vertex="1">
          <mxGeometry x="410" y="59.11111111111111" width="220" height="46.44444444444445" as="geometry" />
        </mxCell>
        <mxCell id="sZbaFN6az_ifyVlc9dtm-9" value="&lt;p style=&quot;margin:0px;margin-top:4px;text-align:center;&quot;&gt;&lt;b&gt;GameSelectionPageComponent&lt;/b&gt;&lt;/p&gt;&lt;hr size=&quot;1&quot;&gt;&lt;div style=&quot;height:2px;&quot;&gt;&lt;/div&gt;" style="verticalAlign=top;align=left;overflow=fill;fontSize=12;fontFamily=Helvetica;html=1;whiteSpace=wrap;" parent="sZbaFN6az_ifyVlc9dtm-2" vertex="1">
          <mxGeometry x="650" y="59.1111111111111" width="190" height="46.44444444444445" as="geometry" />
        </mxCell>
        <mxCell id="cTMpLwmZ2EmieA0-YEr4-5" value="&lt;p style=&quot;margin:0px;margin-top:4px;text-align:center;&quot;&gt;&lt;b&gt;TimeConfigPageComponent&lt;/b&gt;&lt;/p&gt;&lt;hr size=&quot;1&quot;&gt;&lt;div style=&quot;height:2px;&quot;&gt;&lt;/div&gt;" style="verticalAlign=top;align=left;overflow=fill;fontSize=12;fontFamily=Helvetica;html=1;whiteSpace=wrap;" parent="sZbaFN6az_ifyVlc9dtm-2" vertex="1">
          <mxGeometry x="180" y="59.1111111111111" width="220" height="46.44444444444445" as="geometry" />
        </mxCell>
        <mxCell id="sZbaFN6az_ifyVlc9dtm-10" value="" style="group" parent="WIyWlLk6GJQsqaUBKTNV-1" vertex="1" connectable="0">
          <mxGeometry x="-750" y="265" width="1470" height="460" as="geometry" />
        </mxCell>
        <mxCell id="sZbaFN6az_ifyVlc9dtm-11" value="" style="shape=folder;fontStyle=1;spacingTop=10;tabWidth=80;tabHeight=20;tabPosition=left;html=1;whiteSpace=wrap;" parent="sZbaFN6az_ifyVlc9dtm-10" vertex="1">
          <mxGeometry width="1400" height="460" as="geometry" />
        </mxCell>
        <mxCell id="sZbaFN6az_ifyVlc9dtm-12" value="Composant" style="text;align=center;fontStyle=1;verticalAlign=middle;spacingLeft=3;spacingRight=3;strokeColor=none;rotatable=0;points=[[0,0.5],[1,0.5]];portConstraint=eastwest;html=1;" parent="sZbaFN6az_ifyVlc9dtm-10" vertex="1">
          <mxGeometry x="-0.00032258064516099694" width="73.17073170731707" height="17.27272727272727" as="geometry" />
        </mxCell>
        <mxCell id="sZbaFN6az_ifyVlc9dtm-13" value="&lt;p style=&quot;margin:0px;margin-top:4px;text-align:center;&quot;&gt;&lt;b&gt;CreationCanvasesComponent&lt;/b&gt;&lt;/p&gt;&lt;hr size=&quot;1&quot;&gt;&lt;div style=&quot;height:2px;&quot;&gt;&lt;/div&gt;" style="verticalAlign=top;align=left;overflow=fill;fontSize=12;fontFamily=Helvetica;html=1;whiteSpace=wrap;" parent="sZbaFN6az_ifyVlc9dtm-10" vertex="1">
          <mxGeometry x="160" y="45" width="190" height="46" as="geometry" />
        </mxCell>
        <mxCell id="sZbaFN6az_ifyVlc9dtm-14" value="&lt;p style=&quot;margin:0px;margin-top:4px;text-align:center;&quot;&gt;&lt;b&gt;TitleBarComponent&lt;/b&gt;&lt;/p&gt;&lt;hr size=&quot;1&quot;&gt;&lt;div style=&quot;height:2px;&quot;&gt;&lt;/div&gt;" style="verticalAlign=top;align=left;overflow=fill;fontSize=12;fontFamily=Helvetica;html=1;whiteSpace=wrap;" parent="sZbaFN6az_ifyVlc9dtm-10" vertex="1">
          <mxGeometry x="20" y="45" width="120" height="46" as="geometry" />
        </mxCell>
        <mxCell id="sZbaFN6az_ifyVlc9dtm-15" value="&lt;p style=&quot;margin:0px;margin-top:4px;text-align:center;&quot;&gt;&lt;b&gt;GameSelectionCarouselComponent&lt;/b&gt;&lt;/p&gt;&lt;hr size=&quot;1&quot;&gt;&lt;div style=&quot;height:2px;&quot;&gt;&lt;/div&gt;" style="verticalAlign=top;align=left;overflow=fill;fontSize=12;fontFamily=Helvetica;html=1;whiteSpace=wrap;" parent="sZbaFN6az_ifyVlc9dtm-10" vertex="1">
          <mxGeometry x="360" y="45" width="220" height="46" as="geometry" />
        </mxCell>
        <mxCell id="sZbaFN6az_ifyVlc9dtm-16" value="&lt;p style=&quot;margin:0px;margin-top:4px;text-align:center;&quot;&gt;&lt;b&gt;PlayAreaComponent&lt;/b&gt;&lt;/p&gt;&lt;hr size=&quot;1&quot;&gt;&lt;div style=&quot;height:2px;&quot;&gt;&lt;/div&gt;" style="verticalAlign=top;align=left;overflow=fill;fontSize=12;fontFamily=Helvetica;html=1;whiteSpace=wrap;" parent="sZbaFN6az_ifyVlc9dtm-10" vertex="1">
          <mxGeometry x="810" y="45" width="130" height="46" as="geometry" />
        </mxCell>
        <mxCell id="sZbaFN6az_ifyVlc9dtm-17" value="&lt;p style=&quot;margin:0px;margin-top:4px;text-align:center;&quot;&gt;&lt;b&gt;SidebarComponent&lt;/b&gt;&lt;/p&gt;&lt;hr size=&quot;1&quot;&gt;&lt;div style=&quot;height:2px;&quot;&gt;&lt;/div&gt;" style="verticalAlign=top;align=left;overflow=fill;fontSize=12;fontFamily=Helvetica;html=1;whiteSpace=wrap;" parent="sZbaFN6az_ifyVlc9dtm-10" vertex="1">
          <mxGeometry x="600" y="45" width="190" height="46" as="geometry" />
        </mxCell>
        <mxCell id="sZbaFN6az_ifyVlc9dtm-18" value="&lt;p style=&quot;margin:0px;margin-top:4px;text-align:center;&quot;&gt;&lt;b&gt;CreationToolbarComponent&lt;/b&gt;&lt;/p&gt;&lt;hr size=&quot;1&quot;&gt;&lt;div style=&quot;height:2px;&quot;&gt;&lt;/div&gt;" style="verticalAlign=top;align=left;overflow=fill;fontSize=12;fontFamily=Helvetica;html=1;whiteSpace=wrap;" parent="sZbaFN6az_ifyVlc9dtm-10" vertex="1">
          <mxGeometry x="30" y="147" width="190" height="46" as="geometry" />
        </mxCell>
        <mxCell id="sZbaFN6az_ifyVlc9dtm-19" value="&lt;p style=&quot;margin:0px;margin-top:4px;text-align:center;&quot;&gt;&lt;b&gt;InfoCardComponent&lt;/b&gt;&lt;/p&gt;&lt;hr size=&quot;1&quot;&gt;&lt;div style=&quot;height:2px;&quot;&gt;&lt;/div&gt;" style="verticalAlign=top;align=left;overflow=fill;fontSize=12;fontFamily=Helvetica;html=1;whiteSpace=wrap;" parent="sZbaFN6az_ifyVlc9dtm-10" vertex="1">
          <mxGeometry x="550" y="128" width="120" height="46" as="geometry" />
        </mxCell>
        <mxCell id="sZbaFN6az_ifyVlc9dtm-20" value="&lt;p style=&quot;margin:0px;margin-top:4px;text-align:center;&quot;&gt;&lt;b&gt;LiveChatComponent&lt;/b&gt;&lt;/p&gt;&lt;hr size=&quot;1&quot;&gt;&lt;div style=&quot;height:2px;&quot;&gt;&lt;/div&gt;" style="verticalAlign=top;align=left;overflow=fill;fontSize=12;fontFamily=Helvetica;html=1;whiteSpace=wrap;" parent="sZbaFN6az_ifyVlc9dtm-10" vertex="1">
          <mxGeometry x="1090" y="351" width="190" height="46" as="geometry" />
        </mxCell>
        <mxCell id="sZbaFN6az_ifyVlc9dtm-21" value="&lt;p style=&quot;margin:0px;margin-top:4px;text-align:center;&quot;&gt;&lt;b&gt;ModalDifferenceComponent&lt;/b&gt;&lt;/p&gt;&lt;hr size=&quot;1&quot;&gt;&lt;div style=&quot;height:2px;&quot;&gt;&lt;/div&gt;" style="verticalAlign=top;align=left;overflow=fill;fontSize=12;fontFamily=Helvetica;html=1;whiteSpace=wrap;" parent="sZbaFN6az_ifyVlc9dtm-10" vertex="1">
          <mxGeometry x="270" y="174" width="220" height="46" as="geometry" />
        </mxCell>
        <mxCell id="sZbaFN6az_ifyVlc9dtm-22" value="&lt;p style=&quot;margin:0px;margin-top:4px;text-align:center;&quot;&gt;&lt;b&gt;ModalEndgameComponent&lt;/b&gt;&lt;/p&gt;&lt;hr size=&quot;1&quot;&gt;&lt;div style=&quot;height:2px;&quot;&gt;&lt;/div&gt;" style="verticalAlign=top;align=left;overflow=fill;fontSize=12;fontFamily=Helvetica;html=1;whiteSpace=wrap;" parent="sZbaFN6az_ifyVlc9dtm-10" vertex="1">
          <mxGeometry x="1080" y="174" width="220" height="46" as="geometry" />
        </mxCell>
        <mxCell id="sZbaFN6az_ifyVlc9dtm-23" value="&lt;p style=&quot;margin:0px;margin-top:4px;text-align:center;&quot;&gt;&lt;b&gt;ModalUsernameComponent&lt;/b&gt;&lt;/p&gt;&lt;hr size=&quot;1&quot;&gt;&lt;div style=&quot;height:2px;&quot;&gt;&lt;/div&gt;" style="verticalAlign=top;align=left;overflow=fill;fontSize=12;fontFamily=Helvetica;html=1;whiteSpace=wrap;" parent="sZbaFN6az_ifyVlc9dtm-10" vertex="1">
          <mxGeometry x="297.5" y="305" width="220" height="46" as="geometry" />
        </mxCell>
        <mxCell id="sZbaFN6az_ifyVlc9dtm-24" value="&lt;p style=&quot;margin:0px;margin-top:4px;text-align:center;&quot;&gt;&lt;b&gt;TimerComponent&lt;/b&gt;&lt;/p&gt;&lt;hr size=&quot;1&quot;&gt;&lt;div style=&quot;height:2px;&quot;&gt;&lt;/div&gt;" style="verticalAlign=top;align=left;overflow=fill;fontSize=12;fontFamily=Helvetica;html=1;whiteSpace=wrap;" parent="sZbaFN6az_ifyVlc9dtm-10" vertex="1">
          <mxGeometry x="350" y="385" width="115" height="46" as="geometry" />
        </mxCell>
        <mxCell id="sZbaFN6az_ifyVlc9dtm-25" value="" style="endArrow=diamondThin;endFill=0;endSize=24;html=1;rounded=0;entryX=0.5;entryY=1;entryDx=0;entryDy=0;exitX=0.5;exitY=0;exitDx=0;exitDy=0;" parent="sZbaFN6az_ifyVlc9dtm-10" source="sZbaFN6az_ifyVlc9dtm-18" target="sZbaFN6az_ifyVlc9dtm-13" edge="1">
          <mxGeometry width="160" relative="1" as="geometry">
            <mxPoint x="305" y="95" as="sourcePoint" />
            <mxPoint x="295" y="-9" as="targetPoint" />
          </mxGeometry>
        </mxCell>
        <mxCell id="sZbaFN6az_ifyVlc9dtm-26" value="" style="endArrow=diamondThin;endFill=0;endSize=24;html=1;rounded=0;entryX=0.5;entryY=1;entryDx=0;entryDy=0;exitX=0.5;exitY=0;exitDx=0;exitDy=0;" parent="sZbaFN6az_ifyVlc9dtm-10" source="sZbaFN6az_ifyVlc9dtm-21" target="sZbaFN6az_ifyVlc9dtm-13" edge="1">
          <mxGeometry width="160" relative="1" as="geometry">
            <mxPoint x="315" y="105" as="sourcePoint" />
            <mxPoint x="305" y="1" as="targetPoint" />
          </mxGeometry>
        </mxCell>
        <mxCell id="sZbaFN6az_ifyVlc9dtm-27" value="" style="endArrow=diamondThin;endFill=0;endSize=24;html=1;rounded=0;entryX=0.5;entryY=1;entryDx=0;entryDy=0;exitX=0.5;exitY=0;exitDx=0;exitDy=0;" parent="sZbaFN6az_ifyVlc9dtm-10" source="sZbaFN6az_ifyVlc9dtm-19" target="sZbaFN6az_ifyVlc9dtm-15" edge="1">
          <mxGeometry width="160" relative="1" as="geometry">
            <mxPoint x="335" y="125" as="sourcePoint" />
            <mxPoint x="325" y="21" as="targetPoint" />
          </mxGeometry>
        </mxCell>
        <mxCell id="sZbaFN6az_ifyVlc9dtm-28" value="" style="endArrow=diamondThin;endFill=0;endSize=24;html=1;rounded=0;entryX=0.75;entryY=1;entryDx=0;entryDy=0;exitX=0.5;exitY=0;exitDx=0;exitDy=0;" parent="sZbaFN6az_ifyVlc9dtm-10" source="sZbaFN6az_ifyVlc9dtm-20" target="sZbaFN6az_ifyVlc9dtm-17" edge="1">
          <mxGeometry width="160" relative="1" as="geometry">
            <mxPoint x="620" y="138" as="sourcePoint" />
            <mxPoint x="480" y="101" as="targetPoint" />
          </mxGeometry>
        </mxCell>
        <mxCell id="sZbaFN6az_ifyVlc9dtm-29" value="" style="endArrow=diamondThin;endFill=0;endSize=24;html=1;rounded=0;entryX=0.5;entryY=1;entryDx=0;entryDy=0;exitX=0.5;exitY=0;exitDx=0;exitDy=0;" parent="sZbaFN6az_ifyVlc9dtm-10" source="sZbaFN6az_ifyVlc9dtm-23" target="sZbaFN6az_ifyVlc9dtm-19" edge="1">
          <mxGeometry width="160" relative="1" as="geometry">
            <mxPoint x="630" y="148" as="sourcePoint" />
            <mxPoint x="490" y="111" as="targetPoint" />
          </mxGeometry>
        </mxCell>
        <mxCell id="sZbaFN6az_ifyVlc9dtm-30" value="" style="endArrow=diamondThin;endFill=0;endSize=24;html=1;rounded=0;entryX=0.25;entryY=1;entryDx=0;entryDy=0;exitX=1;exitY=0.5;exitDx=0;exitDy=0;" parent="sZbaFN6az_ifyVlc9dtm-10" source="sZbaFN6az_ifyVlc9dtm-24" target="sZbaFN6az_ifyVlc9dtm-16" edge="1">
          <mxGeometry width="160" relative="1" as="geometry">
            <mxPoint x="640" y="158" as="sourcePoint" />
            <mxPoint x="500" y="121" as="targetPoint" />
          </mxGeometry>
        </mxCell>
        <mxCell id="cTMpLwmZ2EmieA0-YEr4-0" value="&lt;p style=&quot;margin:0px;margin-top:4px;text-align:center;&quot;&gt;&lt;b&gt;PlayerDiscriminatorComponent&lt;/b&gt;&lt;/p&gt;&lt;hr size=&quot;1&quot;&gt;&lt;div style=&quot;height:2px;&quot;&gt;&lt;/div&gt;" style="verticalAlign=top;align=left;overflow=fill;fontSize=12;fontFamily=Helvetica;html=1;whiteSpace=wrap;" parent="sZbaFN6az_ifyVlc9dtm-10" vertex="1">
          <mxGeometry x="970" y="55" width="185" height="46" as="geometry" />
        </mxCell>
        <mxCell id="cTMpLwmZ2EmieA0-YEr4-1" value="&lt;p style=&quot;margin:0px;margin-top:4px;text-align:center;&quot;&gt;&lt;b&gt;ModalReplayComponent&lt;/b&gt;&lt;/p&gt;&lt;hr size=&quot;1&quot;&gt;&lt;div style=&quot;height:2px;&quot;&gt;&lt;/div&gt;" style="verticalAlign=top;align=left;overflow=fill;fontSize=12;fontFamily=Helvetica;html=1;whiteSpace=wrap;" parent="sZbaFN6az_ifyVlc9dtm-10" vertex="1">
          <mxGeometry x="1150" y="245" width="160" height="46" as="geometry" />
        </mxCell>
        <mxCell id="IqVXhv2ddW2XKEcG9yaG-3" value="&lt;p style=&quot;margin:0px;margin-top:4px;text-align:center;&quot;&gt;&lt;b&gt;ResetComponent&lt;/b&gt;&lt;/p&gt;&lt;hr size=&quot;1&quot;&gt;&lt;div style=&quot;height:2px;&quot;&gt;&lt;/div&gt;" style="verticalAlign=top;align=left;overflow=fill;fontSize=12;fontFamily=Helvetica;html=1;whiteSpace=wrap;" vertex="1" parent="sZbaFN6az_ifyVlc9dtm-10">
          <mxGeometry x="25" y="285" width="110" height="46" as="geometry" />
        </mxCell>
        <mxCell id="IqVXhv2ddW2XKEcG9yaG-6" value="&lt;p style=&quot;margin:0px;margin-top:4px;text-align:center;&quot;&gt;&lt;b&gt;HistoryComponent&lt;/b&gt;&lt;/p&gt;&lt;hr size=&quot;1&quot;&gt;&lt;div style=&quot;height:2px;&quot;&gt;&lt;/div&gt;" style="verticalAlign=top;align=left;overflow=fill;fontSize=12;fontFamily=Helvetica;html=1;whiteSpace=wrap;" vertex="1" parent="sZbaFN6az_ifyVlc9dtm-10">
          <mxGeometry x="860" y="259" width="110" height="46" as="geometry" />
        </mxCell>
        <mxCell id="sZbaFN6az_ifyVlc9dtm-31" value="" style="group" parent="WIyWlLk6GJQsqaUBKTNV-1" vertex="1" connectable="0">
          <mxGeometry x="-750" y="760" width="1400" height="300" as="geometry" />
        </mxCell>
        <mxCell id="sZbaFN6az_ifyVlc9dtm-32" value="" style="shape=folder;fontStyle=1;spacingTop=10;tabWidth=80;tabHeight=20;tabPosition=left;html=1;whiteSpace=wrap;" parent="sZbaFN6az_ifyVlc9dtm-31" vertex="1">
          <mxGeometry width="1400" height="300" as="geometry" />
        </mxCell>
        <mxCell id="sZbaFN6az_ifyVlc9dtm-33" value="Services" style="text;align=center;fontStyle=1;verticalAlign=middle;spacingLeft=3;spacingRight=3;strokeColor=none;rotatable=0;points=[[0,0.5],[1,0.5]];portConstraint=eastwest;html=1;" parent="sZbaFN6az_ifyVlc9dtm-31" vertex="1">
          <mxGeometry x="11.860451977401125" width="73.26030039961417" height="21.818181818181813" as="geometry" />
        </mxCell>
        <mxCell id="sZbaFN6az_ifyVlc9dtm-34" value="&lt;p style=&quot;margin:0px;margin-top:4px;text-align:center;&quot;&gt;&lt;b&gt;BlinkService&lt;/b&gt;&lt;/p&gt;&lt;hr size=&quot;1&quot;&gt;&lt;div style=&quot;height:2px;&quot;&gt;&lt;/div&gt;" style="verticalAlign=top;align=left;overflow=fill;fontSize=12;fontFamily=Helvetica;html=1;whiteSpace=wrap;" parent="sZbaFN6az_ifyVlc9dtm-31" vertex="1">
          <mxGeometry x="633" y="240" width="116.58" height="50" as="geometry" />
        </mxCell>
        <mxCell id="sZbaFN6az_ifyVlc9dtm-35" value="&lt;p style=&quot;margin:0px;margin-top:4px;text-align:center;&quot;&gt;&lt;b&gt;ChatService&lt;/b&gt;&lt;/p&gt;&lt;hr size=&quot;1&quot;&gt;&lt;div style=&quot;height:2px;&quot;&gt;&lt;/div&gt;" style="verticalAlign=top;align=left;overflow=fill;fontSize=12;fontFamily=Helvetica;html=1;whiteSpace=wrap;" parent="sZbaFN6az_ifyVlc9dtm-31" vertex="1">
          <mxGeometry x="879.9984745762712" y="110" width="116.57966101694916" height="46" as="geometry" />
        </mxCell>
        <mxCell id="sZbaFN6az_ifyVlc9dtm-36" value="&lt;p style=&quot;margin:0px;margin-top:4px;text-align:center;&quot;&gt;&lt;b&gt;DrawService&lt;/b&gt;&lt;/p&gt;&lt;hr size=&quot;1&quot;&gt;&lt;div style=&quot;height:2px;&quot;&gt;&lt;/div&gt;" style="verticalAlign=top;align=left;overflow=fill;fontSize=12;fontFamily=Helvetica;html=1;whiteSpace=wrap;" parent="sZbaFN6az_ifyVlc9dtm-31" vertex="1">
          <mxGeometry x="33.42203389830508" y="80" width="116.57966101694916" height="46" as="geometry" />
        </mxCell>
        <mxCell id="sZbaFN6az_ifyVlc9dtm-37" value="&lt;p style=&quot;margin:0px;margin-top:4px;text-align:center;&quot;&gt;&lt;b&gt;GameplayService&lt;/b&gt;&lt;/p&gt;&lt;hr size=&quot;1&quot;&gt;&lt;div style=&quot;height:2px;&quot;&gt;&lt;/div&gt;" style="verticalAlign=top;align=left;overflow=fill;fontSize=12;fontFamily=Helvetica;html=1;whiteSpace=wrap;" parent="sZbaFN6az_ifyVlc9dtm-31" vertex="1">
          <mxGeometry x="699.9991525423728" y="50" width="128.44406779661017" height="46" as="geometry" />
        </mxCell>
        <mxCell id="sZbaFN6az_ifyVlc9dtm-39" value="&lt;p style=&quot;margin:0px;margin-top:4px;text-align:center;&quot;&gt;&lt;b&gt;GameTemplateService&lt;/b&gt;&lt;/p&gt;&lt;hr size=&quot;1&quot;&gt;&lt;div style=&quot;height:2px;&quot;&gt;&lt;/div&gt;" style="verticalAlign=top;align=left;overflow=fill;fontSize=12;fontFamily=Helvetica;html=1;whiteSpace=wrap;" parent="sZbaFN6az_ifyVlc9dtm-31" vertex="1">
          <mxGeometry x="1170" y="110" width="132.51" height="46" as="geometry" />
        </mxCell>
        <mxCell id="sZbaFN6az_ifyVlc9dtm-40" value="&lt;p style=&quot;margin:0px;margin-top:4px;text-align:center;&quot;&gt;&lt;b&gt;ImagesService&lt;/b&gt;&lt;/p&gt;&lt;hr size=&quot;1&quot;&gt;&lt;div style=&quot;height:2px;&quot;&gt;&lt;/div&gt;" style="verticalAlign=top;align=left;overflow=fill;fontSize=12;fontFamily=Helvetica;html=1;whiteSpace=wrap;" parent="sZbaFN6az_ifyVlc9dtm-31" vertex="1">
          <mxGeometry x="200.0013559322034" y="80" width="116.57966101694916" height="46" as="geometry" />
        </mxCell>
        <mxCell id="sZbaFN6az_ifyVlc9dtm-41" value="&lt;p style=&quot;margin:0px;margin-top:4px;text-align:center;&quot;&gt;&lt;b&gt;SocketIoService&lt;/b&gt;&lt;/p&gt;&lt;hr size=&quot;1&quot;&gt;&lt;div style=&quot;height:2px;&quot;&gt;&lt;/div&gt;" style="verticalAlign=top;align=left;overflow=fill;fontSize=12;fontFamily=Helvetica;html=1;whiteSpace=wrap;" parent="sZbaFN6az_ifyVlc9dtm-31" vertex="1">
          <mxGeometry x="1014.2093220338984" y="240" width="116.57966101694916" height="46" as="geometry" />
        </mxCell>
        <mxCell id="sZbaFN6az_ifyVlc9dtm-42" value="&lt;p style=&quot;margin:0px;margin-top:4px;text-align:center;&quot;&gt;&lt;b&gt;ImagesDifferenceService&lt;/b&gt;&lt;/p&gt;&lt;hr size=&quot;1&quot;&gt;&lt;div style=&quot;height:2px;&quot;&gt;&lt;/div&gt;" style="verticalAlign=top;align=left;overflow=fill;fontSize=12;fontFamily=Helvetica;html=1;whiteSpace=wrap;" parent="sZbaFN6az_ifyVlc9dtm-31" vertex="1">
          <mxGeometry x="60.00101694915253" y="170" width="175.9016949152542" height="46" as="geometry" />
        </mxCell>
        <mxCell id="sZbaFN6az_ifyVlc9dtm-43" value="Use" style="endArrow=open;endSize=12;dashed=1;html=1;rounded=0;exitX=0.25;exitY=1;exitDx=0;exitDy=0;entryX=0.5;entryY=0;entryDx=0;entryDy=0;" parent="sZbaFN6az_ifyVlc9dtm-31" source="sZbaFN6az_ifyVlc9dtm-37" target="sZbaFN6az_ifyVlc9dtm-34" edge="1">
          <mxGeometry width="160" relative="1" as="geometry">
            <mxPoint x="302.5423728813559" y="-264" as="sourcePoint" />
            <mxPoint x="480.50847457627117" y="-210" as="targetPoint" />
          </mxGeometry>
        </mxCell>
        <mxCell id="sZbaFN6az_ifyVlc9dtm-44" value="Use" style="endArrow=open;endSize=12;dashed=1;html=1;rounded=0;exitX=1;exitY=0.5;exitDx=0;exitDy=0;entryX=0;entryY=0.5;entryDx=0;entryDy=0;" parent="sZbaFN6az_ifyVlc9dtm-31" source="sZbaFN6az_ifyVlc9dtm-37" target="sZbaFN6az_ifyVlc9dtm-35" edge="1">
          <mxGeometry width="160" relative="1" as="geometry">
            <mxPoint x="538.6440677966101" y="190" as="sourcePoint" />
            <mxPoint x="485.2542372881356" y="136" as="targetPoint" />
          </mxGeometry>
        </mxCell>
        <mxCell id="sZbaFN6az_ifyVlc9dtm-45" value="Use" style="endArrow=open;endSize=12;dashed=1;html=1;rounded=0;exitX=0.5;exitY=1;exitDx=0;exitDy=0;entryX=0.5;entryY=0;entryDx=0;entryDy=0;" parent="sZbaFN6az_ifyVlc9dtm-31" source="sZbaFN6az_ifyVlc9dtm-40" target="sZbaFN6az_ifyVlc9dtm-42" edge="1">
          <mxGeometry x="-0.0096" width="160" relative="1" as="geometry">
            <mxPoint x="749.8305084745763" y="190" as="sourcePoint" />
            <mxPoint x="485.2542372881356" y="136" as="targetPoint" />
            <mxPoint as="offset" />
          </mxGeometry>
        </mxCell>
        <mxCell id="sZbaFN6az_ifyVlc9dtm-46" value="Use" style="endArrow=open;endSize=12;dashed=1;html=1;rounded=0;exitX=1;exitY=0.5;exitDx=0;exitDy=0;entryX=0;entryY=0.5;entryDx=0;entryDy=0;" parent="sZbaFN6az_ifyVlc9dtm-31" source="sZbaFN6az_ifyVlc9dtm-36" target="sZbaFN6az_ifyVlc9dtm-40" edge="1">
          <mxGeometry width="160" relative="1" as="geometry">
            <mxPoint x="333.3898305084746" y="136" as="sourcePoint" />
            <mxPoint x="479.32203389830505" y="190" as="targetPoint" />
          </mxGeometry>
        </mxCell>
        <mxCell id="sZbaFN6az_ifyVlc9dtm-47" value="Use" style="endArrow=open;endSize=12;dashed=1;html=1;rounded=0;exitX=0.5;exitY=1;exitDx=0;exitDy=0;entryX=0.5;entryY=0;entryDx=0;entryDy=0;" parent="sZbaFN6az_ifyVlc9dtm-31" source="sZbaFN6az_ifyVlc9dtm-35" target="sZbaFN6az_ifyVlc9dtm-41" edge="1">
          <mxGeometry width="160" relative="1" as="geometry">
            <mxPoint x="333.3898305084746" y="136" as="sourcePoint" />
            <mxPoint x="479.32203389830505" y="190" as="targetPoint" />
          </mxGeometry>
        </mxCell>
        <mxCell id="sZbaFN6az_ifyVlc9dtm-48" value="Use" style="endArrow=open;endSize=12;dashed=1;html=1;rounded=0;exitX=0.5;exitY=1;exitDx=0;exitDy=0;entryX=0.5;entryY=0;entryDx=0;entryDy=0;" parent="sZbaFN6az_ifyVlc9dtm-31" source="sZbaFN6az_ifyVlc9dtm-37" target="sZbaFN6az_ifyVlc9dtm-41" edge="1">
          <mxGeometry width="160" relative="1" as="geometry">
            <mxPoint x="345.2542372881356" y="146" as="sourcePoint" />
            <mxPoint x="491.18644067796606" y="200" as="targetPoint" />
          </mxGeometry>
        </mxCell>
        <mxCell id="sZbaFN6az_ifyVlc9dtm-73" value="&lt;p style=&quot;margin:0px;margin-top:4px;text-align:center;&quot;&gt;&lt;b&gt;HintService&lt;/b&gt;&lt;/p&gt;&lt;hr size=&quot;1&quot;&gt;&lt;div style=&quot;height:2px;&quot;&gt;&lt;/div&gt;" style="verticalAlign=top;align=left;overflow=fill;fontSize=12;fontFamily=Helvetica;html=1;whiteSpace=wrap;" parent="sZbaFN6az_ifyVlc9dtm-31" vertex="1">
          <mxGeometry x="583.4203389830508" y="150" width="116.57966101694916" height="46" as="geometry" />
        </mxCell>
        <mxCell id="cTMpLwmZ2EmieA0-YEr4-6" value="&lt;p style=&quot;margin:0px;margin-top:4px;text-align:center;&quot;&gt;&lt;b&gt;TimeConfigService&lt;/b&gt;&lt;/p&gt;&lt;hr size=&quot;1&quot;&gt;&lt;div style=&quot;height:2px;&quot;&gt;&lt;/div&gt;" style="verticalAlign=top;align=left;overflow=fill;fontSize=12;fontFamily=Helvetica;html=1;whiteSpace=wrap;" parent="sZbaFN6az_ifyVlc9dtm-31" vertex="1">
          <mxGeometry x="316.58423728813557" y="230" width="116.57966101694916" height="46" as="geometry" />
        </mxCell>
        <mxCell id="cTMpLwmZ2EmieA0-YEr4-9" value="Use" style="endArrow=open;endSize=12;dashed=1;html=1;rounded=0;exitX=1;exitY=0.5;exitDx=0;exitDy=0;entryX=0;entryY=0.5;entryDx=0;entryDy=0;" parent="sZbaFN6az_ifyVlc9dtm-31" source="sZbaFN6az_ifyVlc9dtm-34" target="sZbaFN6az_ifyVlc9dtm-41" edge="1">
          <mxGeometry width="160" relative="1" as="geometry">
            <mxPoint x="659" y="136" as="sourcePoint" />
            <mxPoint x="655" y="180" as="targetPoint" />
          </mxGeometry>
        </mxCell>
        <mxCell id="cTMpLwmZ2EmieA0-YEr4-10" value="Use" style="endArrow=open;endSize=12;dashed=1;html=1;rounded=0;exitX=0;exitY=0.5;exitDx=0;exitDy=0;entryX=1;entryY=0.5;entryDx=0;entryDy=0;" parent="sZbaFN6az_ifyVlc9dtm-31" source="sZbaFN6az_ifyVlc9dtm-37" target="sZbaFN6az_ifyVlc9dtm-40" edge="1">
          <mxGeometry x="-0.0096" width="160" relative="1" as="geometry">
            <mxPoint x="268" y="136" as="sourcePoint" />
            <mxPoint x="158" y="180" as="targetPoint" />
            <mxPoint as="offset" />
          </mxGeometry>
        </mxCell>
        <mxCell id="cTMpLwmZ2EmieA0-YEr4-13" style="edgeStyle=orthogonalEdgeStyle;rounded=0;orthogonalLoop=1;jettySize=auto;html=1;exitX=0.5;exitY=0;exitDx=0;exitDy=0;entryX=0.504;entryY=0.217;entryDx=0;entryDy=0;entryPerimeter=0;" parent="sZbaFN6az_ifyVlc9dtm-31" source="sZbaFN6az_ifyVlc9dtm-35" target="sZbaFN6az_ifyVlc9dtm-35" edge="1">
          <mxGeometry relative="1" as="geometry" />
        </mxCell>
        <mxCell id="cTMpLwmZ2EmieA0-YEr4-14" value="Use" style="endArrow=open;endSize=12;dashed=1;html=1;rounded=0;exitX=1;exitY=0.5;exitDx=0;exitDy=0;entryX=0;entryY=0.5;entryDx=0;entryDy=0;" parent="sZbaFN6az_ifyVlc9dtm-31" source="sZbaFN6az_ifyVlc9dtm-73" target="sZbaFN6az_ifyVlc9dtm-35" edge="1">
          <mxGeometry width="160" relative="1" as="geometry">
            <mxPoint x="664" y="96" as="sourcePoint" />
            <mxPoint x="701" y="250" as="targetPoint" />
          </mxGeometry>
        </mxCell>
        <mxCell id="cTMpLwmZ2EmieA0-YEr4-15" value="Use" style="endArrow=open;endSize=12;dashed=1;html=1;rounded=0;exitX=1;exitY=0.5;exitDx=0;exitDy=0;entryX=0;entryY=0.25;entryDx=0;entryDy=0;" parent="sZbaFN6az_ifyVlc9dtm-31" source="sZbaFN6az_ifyVlc9dtm-73" target="sZbaFN6az_ifyVlc9dtm-41" edge="1">
          <mxGeometry width="160" relative="1" as="geometry">
            <mxPoint x="674" y="106" as="sourcePoint" />
            <mxPoint x="711" y="260" as="targetPoint" />
          </mxGeometry>
        </mxCell>
        <mxCell id="cTMpLwmZ2EmieA0-YEr4-16" value="Use" style="endArrow=open;endSize=12;dashed=1;html=1;rounded=0;exitX=1;exitY=0.5;exitDx=0;exitDy=0;entryX=0;entryY=0.5;entryDx=0;entryDy=0;" parent="sZbaFN6az_ifyVlc9dtm-31" source="sZbaFN6az_ifyVlc9dtm-37" target="sZbaFN6az_ifyVlc9dtm-39" edge="1">
          <mxGeometry width="160" relative="1" as="geometry">
            <mxPoint x="760" y="73" as="sourcePoint" />
            <mxPoint x="860" y="137" as="targetPoint" />
          </mxGeometry>
        </mxCell>
        <mxCell id="IqVXhv2ddW2XKEcG9yaG-1" value="&lt;p style=&quot;margin:0px;margin-top:4px;text-align:center;&quot;&gt;&lt;b&gt;ResetService&lt;/b&gt;&lt;/p&gt;&lt;hr size=&quot;1&quot;&gt;&lt;div style=&quot;height:2px;&quot;&gt;&lt;/div&gt;" style="verticalAlign=top;align=left;overflow=fill;fontSize=12;fontFamily=Helvetica;html=1;whiteSpace=wrap;" vertex="1" parent="sZbaFN6az_ifyVlc9dtm-31">
          <mxGeometry x="380.0003389830508" y="34" width="116.57966101694916" height="46" as="geometry" />
        </mxCell>
        <mxCell id="IqVXhv2ddW2XKEcG9yaG-0" value="&lt;p style=&quot;margin:0px;margin-top:4px;text-align:center;&quot;&gt;&lt;b&gt;HistoryService&lt;/b&gt;&lt;/p&gt;&lt;hr size=&quot;1&quot;&gt;&lt;div style=&quot;height:2px;&quot;&gt;&lt;/div&gt;" style="verticalAlign=top;align=left;overflow=fill;fontSize=12;fontFamily=Helvetica;html=1;whiteSpace=wrap;" vertex="1" parent="sZbaFN6az_ifyVlc9dtm-31">
          <mxGeometry x="440.00033898305077" y="140" width="116.57966101694916" height="46" as="geometry" />
        </mxCell>
        <mxCell id="sZbaFN6az_ifyVlc9dtm-49" value="Use" style="endArrow=open;endSize=12;dashed=1;html=1;rounded=0;exitX=0.5;exitY=1;exitDx=0;exitDy=0;entryX=0.5;entryY=0;entryDx=0;entryDy=0;" parent="WIyWlLk6GJQsqaUBKTNV-1" source="sZbaFN6az_ifyVlc9dtm-20" target="sZbaFN6az_ifyVlc9dtm-35" edge="1">
          <mxGeometry width="160" relative="1" as="geometry">
            <mxPoint x="-125" y="466" as="sourcePoint" />
            <mxPoint x="-125" y="520" as="targetPoint" />
          </mxGeometry>
        </mxCell>
        <mxCell id="sZbaFN6az_ifyVlc9dtm-50" value="Use" style="endArrow=open;endSize=12;dashed=1;html=1;rounded=0;exitX=0.5;exitY=1;exitDx=0;exitDy=0;entryX=0.5;entryY=0;entryDx=0;entryDy=0;" parent="WIyWlLk6GJQsqaUBKTNV-1" source="sZbaFN6az_ifyVlc9dtm-13" target="sZbaFN6az_ifyVlc9dtm-40" edge="1">
          <mxGeometry width="160" relative="1" as="geometry">
            <mxPoint x="-485" y="366" as="sourcePoint" />
            <mxPoint x="-335" y="420" as="targetPoint" />
          </mxGeometry>
        </mxCell>
        <mxCell id="sZbaFN6az_ifyVlc9dtm-51" value="Use" style="endArrow=open;endSize=12;dashed=1;html=1;rounded=0;exitX=0.5;exitY=1;exitDx=0;exitDy=0;entryX=0.5;entryY=0;entryDx=0;entryDy=0;" parent="WIyWlLk6GJQsqaUBKTNV-1" source="sZbaFN6az_ifyVlc9dtm-18" target="sZbaFN6az_ifyVlc9dtm-40" edge="1">
          <mxGeometry width="160" relative="1" as="geometry">
            <mxPoint x="-485" y="366" as="sourcePoint" />
            <mxPoint x="-335" y="420" as="targetPoint" />
          </mxGeometry>
        </mxCell>
        <mxCell id="sZbaFN6az_ifyVlc9dtm-52" value="Use" style="endArrow=open;endSize=12;dashed=1;html=1;rounded=0;exitX=0.451;exitY=0.985;exitDx=0;exitDy=0;entryX=0.5;entryY=0;entryDx=0;entryDy=0;exitPerimeter=0;" parent="WIyWlLk6GJQsqaUBKTNV-1" source="sZbaFN6az_ifyVlc9dtm-16" target="sZbaFN6az_ifyVlc9dtm-40" edge="1">
          <mxGeometry width="160" relative="1" as="geometry">
            <mxPoint x="-45" y="366" as="sourcePoint" />
            <mxPoint x="95" y="420" as="targetPoint" />
          </mxGeometry>
        </mxCell>
        <mxCell id="sZbaFN6az_ifyVlc9dtm-53" value="Use" style="endArrow=open;endSize=12;dashed=1;html=1;rounded=0;exitX=0.5;exitY=1;exitDx=0;exitDy=0;entryX=0.5;entryY=0;entryDx=0;entryDy=0;" parent="WIyWlLk6GJQsqaUBKTNV-1" source="sZbaFN6az_ifyVlc9dtm-18" target="sZbaFN6az_ifyVlc9dtm-36" edge="1">
          <mxGeometry width="160" relative="1" as="geometry">
            <mxPoint x="-615" y="468" as="sourcePoint" />
            <mxPoint x="-459" y="710" as="targetPoint" />
          </mxGeometry>
        </mxCell>
        <mxCell id="sZbaFN6az_ifyVlc9dtm-54" value="Use" style="endArrow=open;endSize=12;dashed=1;html=1;rounded=0;exitX=0.5;exitY=1;exitDx=0;exitDy=0;entryX=1;entryY=0;entryDx=0;entryDy=0;" parent="WIyWlLk6GJQsqaUBKTNV-1" source="sZbaFN6az_ifyVlc9dtm-13" target="sZbaFN6az_ifyVlc9dtm-36" edge="1">
          <mxGeometry width="160" relative="1" as="geometry">
            <mxPoint x="-485" y="366" as="sourcePoint" />
            <mxPoint x="-459" y="710" as="targetPoint" />
          </mxGeometry>
        </mxCell>
        <mxCell id="sZbaFN6az_ifyVlc9dtm-55" value="Use" style="endArrow=open;endSize=12;dashed=1;html=1;rounded=0;exitX=0.5;exitY=1;exitDx=0;exitDy=0;entryX=0.5;entryY=0;entryDx=0;entryDy=0;" parent="WIyWlLk6GJQsqaUBKTNV-1" source="sZbaFN6az_ifyVlc9dtm-24" target="sZbaFN6az_ifyVlc9dtm-37" edge="1">
          <mxGeometry width="160" relative="1" as="geometry">
            <mxPoint x="125" y="468" as="sourcePoint" />
            <mxPoint x="19" y="710" as="targetPoint" />
          </mxGeometry>
        </mxCell>
        <mxCell id="sZbaFN6az_ifyVlc9dtm-56" value="Use" style="endArrow=open;endSize=12;dashed=1;html=1;rounded=0;entryX=0.5;entryY=0;entryDx=0;entryDy=0;exitX=0.562;exitY=1.029;exitDx=0;exitDy=0;exitPerimeter=0;" parent="WIyWlLk6GJQsqaUBKTNV-1" source="sZbaFN6az_ifyVlc9dtm-7" target="sZbaFN6az_ifyVlc9dtm-37" edge="1">
          <mxGeometry x="-0.0051" width="160" relative="1" as="geometry">
            <mxPoint x="153" y="216" as="sourcePoint" />
            <mxPoint x="113" y="319" as="targetPoint" />
            <mxPoint as="offset" />
          </mxGeometry>
        </mxCell>
        <mxCell id="sZbaFN6az_ifyVlc9dtm-57" value="Use" style="endArrow=open;endSize=12;dashed=1;html=1;rounded=0;exitX=0.5;exitY=1;exitDx=0;exitDy=0;entryX=0.5;entryY=0;entryDx=0;entryDy=0;" parent="WIyWlLk6GJQsqaUBKTNV-1" source="sZbaFN6az_ifyVlc9dtm-17" target="sZbaFN6az_ifyVlc9dtm-37" edge="1">
          <mxGeometry width="160" relative="1" as="geometry">
            <mxPoint x="-45" y="366" as="sourcePoint" />
            <mxPoint x="125" y="422" as="targetPoint" />
          </mxGeometry>
        </mxCell>
        <mxCell id="sZbaFN6az_ifyVlc9dtm-58" value="Use" style="endArrow=open;endSize=12;dashed=1;html=1;rounded=0;exitX=0.5;exitY=1;exitDx=0;exitDy=0;entryX=0.5;entryY=0;entryDx=0;entryDy=0;" parent="WIyWlLk6GJQsqaUBKTNV-1" source="sZbaFN6az_ifyVlc9dtm-16" target="sZbaFN6az_ifyVlc9dtm-37" edge="1">
          <mxGeometry width="160" relative="1" as="geometry">
            <mxPoint x="129" y="365" as="sourcePoint" />
            <mxPoint x="-459" y="710" as="targetPoint" />
          </mxGeometry>
        </mxCell>
        <mxCell id="sZbaFN6az_ifyVlc9dtm-59" value="Use" style="endArrow=open;endSize=12;dashed=1;html=1;rounded=0;exitX=0.5;exitY=1;exitDx=0;exitDy=0;entryX=0.5;entryY=0;entryDx=0;entryDy=0;" parent="WIyWlLk6GJQsqaUBKTNV-1" source="sZbaFN6az_ifyVlc9dtm-20" target="sZbaFN6az_ifyVlc9dtm-37" edge="1">
          <mxGeometry width="160" relative="1" as="geometry">
            <mxPoint x="125" y="468" as="sourcePoint" />
            <mxPoint x="-32" y="800" as="targetPoint" />
          </mxGeometry>
        </mxCell>
        <mxCell id="sZbaFN6az_ifyVlc9dtm-60" value="Use" style="endArrow=open;endSize=12;dashed=1;html=1;rounded=0;exitX=0.5;exitY=1;exitDx=0;exitDy=0;entryX=0.5;entryY=0;entryDx=0;entryDy=0;" parent="WIyWlLk6GJQsqaUBKTNV-1" source="sZbaFN6az_ifyVlc9dtm-15" target="sZbaFN6az_ifyVlc9dtm-39" edge="1">
          <mxGeometry width="160" relative="1" as="geometry">
            <mxPoint x="-275" y="367" as="sourcePoint" />
            <mxPoint x="-125" y="420" as="targetPoint" />
          </mxGeometry>
        </mxCell>
        <mxCell id="sZbaFN6az_ifyVlc9dtm-61" value="Use" style="endArrow=open;endSize=12;dashed=1;html=1;rounded=0;exitX=0.667;exitY=1.043;exitDx=0;exitDy=0;entryX=0.25;entryY=0;entryDx=0;entryDy=0;exitPerimeter=0;" parent="WIyWlLk6GJQsqaUBKTNV-1" source="sZbaFN6az_ifyVlc9dtm-19" target="sZbaFN6az_ifyVlc9dtm-39" edge="1">
          <mxGeometry width="160" relative="1" as="geometry">
            <mxPoint x="-210" y="556" as="sourcePoint" />
            <mxPoint x="-320" y="580" as="targetPoint" />
          </mxGeometry>
        </mxCell>
        <mxCell id="sZbaFN6az_ifyVlc9dtm-62" value="Use" style="endArrow=open;endSize=12;dashed=1;html=1;rounded=0;exitX=0.5;exitY=1;exitDx=0;exitDy=0;entryX=0.5;entryY=0;entryDx=0;entryDy=0;" parent="WIyWlLk6GJQsqaUBKTNV-1" source="sZbaFN6az_ifyVlc9dtm-21" target="sZbaFN6az_ifyVlc9dtm-39" edge="1">
          <mxGeometry width="160" relative="1" as="geometry">
            <mxPoint x="-130" y="446" as="sourcePoint" />
            <mxPoint x="-320" y="580" as="targetPoint" />
          </mxGeometry>
        </mxCell>
        <mxCell id="sZbaFN6az_ifyVlc9dtm-66" value="Use" style="endArrow=open;endSize=12;dashed=1;html=1;rounded=0;exitX=1;exitY=0.5;exitDx=0;exitDy=0;entryX=0;entryY=0.5;entryDx=0;entryDy=0;" parent="WIyWlLk6GJQsqaUBKTNV-1" source="sZbaFN6az_ifyVlc9dtm-37" target="sZbaFN6az_ifyVlc9dtm-22" edge="1">
          <mxGeometry width="160" relative="1" as="geometry">
            <mxPoint x="-102" y="873" as="sourcePoint" />
            <mxPoint x="-30" y="873" as="targetPoint" />
          </mxGeometry>
        </mxCell>
        <mxCell id="sZbaFN6az_ifyVlc9dtm-67" value="" style="endArrow=diamondThin;endFill=0;endSize=24;html=1;rounded=0;entryX=0.5;entryY=1;entryDx=0;entryDy=0;exitX=0.5;exitY=0;exitDx=0;exitDy=0;" parent="WIyWlLk6GJQsqaUBKTNV-1" source="sZbaFN6az_ifyVlc9dtm-13" target="sZbaFN6az_ifyVlc9dtm-6" edge="1">
          <mxGeometry width="160" relative="1" as="geometry">
            <mxPoint x="-360" y="380" as="sourcePoint" />
            <mxPoint x="-200" y="380" as="targetPoint" />
          </mxGeometry>
        </mxCell>
        <mxCell id="sZbaFN6az_ifyVlc9dtm-68" value="" style="endArrow=diamondThin;endFill=0;endSize=24;html=1;rounded=0;entryX=0.5;entryY=1;entryDx=0;entryDy=0;exitX=0.5;exitY=0;exitDx=0;exitDy=0;" parent="WIyWlLk6GJQsqaUBKTNV-1" source="sZbaFN6az_ifyVlc9dtm-15" target="sZbaFN6az_ifyVlc9dtm-9" edge="1">
          <mxGeometry width="160" relative="1" as="geometry">
            <mxPoint x="-485" y="320" as="sourcePoint" />
            <mxPoint x="-495" y="216" as="targetPoint" />
          </mxGeometry>
        </mxCell>
        <mxCell id="sZbaFN6az_ifyVlc9dtm-69" value="" style="endArrow=diamondThin;endFill=0;endSize=24;html=1;rounded=0;entryX=0.5;entryY=1;entryDx=0;entryDy=0;exitX=0.5;exitY=0;exitDx=0;exitDy=0;" parent="WIyWlLk6GJQsqaUBKTNV-1" source="sZbaFN6az_ifyVlc9dtm-17" target="sZbaFN6az_ifyVlc9dtm-7" edge="1">
          <mxGeometry width="160" relative="1" as="geometry">
            <mxPoint x="-475" y="330" as="sourcePoint" />
            <mxPoint x="-485" y="226" as="targetPoint" />
          </mxGeometry>
        </mxCell>
        <mxCell id="sZbaFN6az_ifyVlc9dtm-70" value="" style="endArrow=diamondThin;endFill=0;endSize=24;html=1;rounded=0;entryX=0.75;entryY=1;entryDx=0;entryDy=0;exitX=0.5;exitY=0;exitDx=0;exitDy=0;" parent="WIyWlLk6GJQsqaUBKTNV-1" source="sZbaFN6az_ifyVlc9dtm-16" target="sZbaFN6az_ifyVlc9dtm-7" edge="1">
          <mxGeometry width="160" relative="1" as="geometry">
            <mxPoint x="-465" y="340" as="sourcePoint" />
            <mxPoint x="-475" y="236" as="targetPoint" />
          </mxGeometry>
        </mxCell>
        <mxCell id="sZbaFN6az_ifyVlc9dtm-71" value="" style="endArrow=diamondThin;endFill=0;endSize=24;html=1;rounded=0;entryX=0.5;entryY=1;entryDx=0;entryDy=0;exitX=0.5;exitY=0;exitDx=0;exitDy=0;" parent="WIyWlLk6GJQsqaUBKTNV-1" source="sZbaFN6az_ifyVlc9dtm-15" target="sZbaFN6az_ifyVlc9dtm-8" edge="1">
          <mxGeometry width="160" relative="1" as="geometry">
            <mxPoint x="-455" y="350" as="sourcePoint" />
            <mxPoint x="-465" y="246" as="targetPoint" />
          </mxGeometry>
        </mxCell>
        <mxCell id="sZbaFN6az_ifyVlc9dtm-72" value="" style="endArrow=diamondThin;endFill=0;endSize=24;html=1;rounded=0;entryX=0.116;entryY=0.993;entryDx=0;entryDy=0;exitX=0.75;exitY=0;exitDx=0;exitDy=0;entryPerimeter=0;" parent="WIyWlLk6GJQsqaUBKTNV-1" source="sZbaFN6az_ifyVlc9dtm-14" target="sZbaFN6az_ifyVlc9dtm-3" edge="1">
          <mxGeometry width="160" relative="1" as="geometry">
            <mxPoint x="-425" y="380" as="sourcePoint" />
            <mxPoint x="-435" y="276" as="targetPoint" />
          </mxGeometry>
        </mxCell>
        <mxCell id="cTMpLwmZ2EmieA0-YEr4-2" value="Use" style="endArrow=open;endSize=12;dashed=1;html=1;rounded=0;entryX=0.5;entryY=0;entryDx=0;entryDy=0;exitX=0.25;exitY=1;exitDx=0;exitDy=0;" parent="WIyWlLk6GJQsqaUBKTNV-1" source="cTMpLwmZ2EmieA0-YEr4-0" target="sZbaFN6az_ifyVlc9dtm-41" edge="1">
          <mxGeometry x="-0.0051" width="160" relative="1" as="geometry">
            <mxPoint x="220" y="213" as="sourcePoint" />
            <mxPoint x="353" y="850" as="targetPoint" />
            <mxPoint as="offset" />
          </mxGeometry>
        </mxCell>
        <mxCell id="cTMpLwmZ2EmieA0-YEr4-3" value="Use" style="endArrow=open;endSize=12;dashed=1;html=1;rounded=0;exitX=1;exitY=0.5;exitDx=0;exitDy=0;entryX=0;entryY=0.5;entryDx=0;entryDy=0;" parent="WIyWlLk6GJQsqaUBKTNV-1" source="sZbaFN6az_ifyVlc9dtm-37" target="cTMpLwmZ2EmieA0-YEr4-1" edge="1">
          <mxGeometry width="160" relative="1" as="geometry">
            <mxPoint x="-102" y="873" as="sourcePoint" />
            <mxPoint x="-30" y="873" as="targetPoint" />
          </mxGeometry>
        </mxCell>
        <mxCell id="cTMpLwmZ2EmieA0-YEr4-4" value="Use" style="endArrow=open;endSize=12;dashed=1;html=1;rounded=0;entryX=1;entryY=0;entryDx=0;entryDy=0;exitX=0;exitY=1;exitDx=0;exitDy=0;" parent="WIyWlLk6GJQsqaUBKTNV-1" source="cTMpLwmZ2EmieA0-YEr4-1" target="sZbaFN6az_ifyVlc9dtm-41" edge="1">
          <mxGeometry x="-0.0051" width="160" relative="1" as="geometry">
            <mxPoint x="286" y="386" as="sourcePoint" />
            <mxPoint x="89" y="950" as="targetPoint" />
            <mxPoint as="offset" />
          </mxGeometry>
        </mxCell>
        <mxCell id="cTMpLwmZ2EmieA0-YEr4-7" value="Use" style="endArrow=open;endSize=12;dashed=1;html=1;rounded=0;entryX=0.5;entryY=0;entryDx=0;entryDy=0;exitX=0.5;exitY=1;exitDx=0;exitDy=0;" parent="WIyWlLk6GJQsqaUBKTNV-1" source="cTMpLwmZ2EmieA0-YEr4-5" target="cTMpLwmZ2EmieA0-YEr4-6" edge="1">
          <mxGeometry x="-0.0051" width="160" relative="1" as="geometry">
            <mxPoint x="453" y="218" as="sourcePoint" />
            <mxPoint x="452" y="940" as="targetPoint" />
            <mxPoint as="offset" />
          </mxGeometry>
        </mxCell>
        <mxCell id="cTMpLwmZ2EmieA0-YEr4-8" value="" style="endArrow=diamondThin;endFill=0;endSize=24;html=1;rounded=0;entryX=0.679;entryY=0.982;entryDx=0;entryDy=0;exitX=0.5;exitY=0;exitDx=0;exitDy=0;entryPerimeter=0;" parent="WIyWlLk6GJQsqaUBKTNV-1" source="sZbaFN6az_ifyVlc9dtm-15" target="cTMpLwmZ2EmieA0-YEr4-5" edge="1">
          <mxGeometry width="160" relative="1" as="geometry">
            <mxPoint x="-270" y="320" as="sourcePoint" />
            <mxPoint x="-55" y="216" as="targetPoint" />
          </mxGeometry>
        </mxCell>
        <mxCell id="cTMpLwmZ2EmieA0-YEr4-11" value="Use" style="endArrow=open;endSize=12;dashed=1;html=1;rounded=0;exitX=0.5;exitY=1;exitDx=0;exitDy=0;entryX=0.594;entryY=0.018;entryDx=0;entryDy=0;entryPerimeter=0;" parent="WIyWlLk6GJQsqaUBKTNV-1" source="sZbaFN6az_ifyVlc9dtm-16" target="cTMpLwmZ2EmieA0-YEr4-6" edge="1">
          <mxGeometry width="160" relative="1" as="geometry">
            <mxPoint x="129" y="365" as="sourcePoint" />
            <mxPoint x="-482" y="850" as="targetPoint" />
          </mxGeometry>
        </mxCell>
        <mxCell id="cTMpLwmZ2EmieA0-YEr4-12" value="Use" style="endArrow=open;endSize=12;dashed=1;html=1;rounded=0;exitX=0.5;exitY=1;exitDx=0;exitDy=0;entryX=0.5;entryY=0;entryDx=0;entryDy=0;" parent="WIyWlLk6GJQsqaUBKTNV-1" source="sZbaFN6az_ifyVlc9dtm-16" target="sZbaFN6az_ifyVlc9dtm-73" edge="1">
          <mxGeometry width="160" relative="1" as="geometry">
            <mxPoint x="135" y="366" as="sourcePoint" />
            <mxPoint x="-341" y="921" as="targetPoint" />
          </mxGeometry>
        </mxCell>
        <mxCell id="cTMpLwmZ2EmieA0-YEr4-17" value="Use" style="endArrow=open;endSize=12;dashed=1;html=1;rounded=0;exitX=0.5;exitY=1;exitDx=0;exitDy=0;" parent="WIyWlLk6GJQsqaUBKTNV-1" source="sZbaFN6az_ifyVlc9dtm-5" target="sZbaFN6az_ifyVlc9dtm-41" edge="1">
          <mxGeometry width="160" relative="1" as="geometry">
            <mxPoint x="-45" y="366" as="sourcePoint" />
            <mxPoint x="-54" y="810" as="targetPoint" />
          </mxGeometry>
        </mxCell>
        <mxCell id="cTMpLwmZ2EmieA0-YEr4-18" value="Use" style="endArrow=open;endSize=12;dashed=1;html=1;rounded=0;entryX=0.639;entryY=0.005;entryDx=0;entryDy=0;entryPerimeter=0;" parent="WIyWlLk6GJQsqaUBKTNV-1" source="sZbaFN6az_ifyVlc9dtm-19" target="sZbaFN6az_ifyVlc9dtm-41" edge="1">
          <mxGeometry width="160" relative="1" as="geometry">
            <mxPoint x="-130" y="449" as="sourcePoint" />
            <mxPoint x="463" y="880" as="targetPoint" />
          </mxGeometry>
        </mxCell>
        <mxCell id="IqVXhv2ddW2XKEcG9yaG-2" value="Use" style="endArrow=open;endSize=12;dashed=1;html=1;rounded=0;exitX=0.667;exitY=1.022;exitDx=0;exitDy=0;entryX=0.5;entryY=0;entryDx=0;entryDy=0;exitPerimeter=0;" edge="1" parent="WIyWlLk6GJQsqaUBKTNV-1" source="sZbaFN6az_ifyVlc9dtm-19" target="IqVXhv2ddW2XKEcG9yaG-1">
          <mxGeometry width="160" relative="1" as="geometry">
            <mxPoint x="-110" y="451" as="sourcePoint" />
            <mxPoint x="463" y="880" as="targetPoint" />
          </mxGeometry>
        </mxCell>
        <mxCell id="IqVXhv2ddW2XKEcG9yaG-4" value="Use" style="endArrow=open;endSize=12;dashed=1;html=1;rounded=0;exitX=0.5;exitY=1;exitDx=0;exitDy=0;entryX=0.5;entryY=0;entryDx=0;entryDy=0;" edge="1" parent="WIyWlLk6GJQsqaUBKTNV-1" source="IqVXhv2ddW2XKEcG9yaG-3" target="IqVXhv2ddW2XKEcG9yaG-1">
          <mxGeometry width="160" relative="1" as="geometry">
            <mxPoint x="-110" y="450" as="sourcePoint" />
            <mxPoint x="-302" y="804" as="targetPoint" />
          </mxGeometry>
        </mxCell>
        <mxCell id="IqVXhv2ddW2XKEcG9yaG-5" value="" style="endArrow=diamondThin;endFill=0;endSize=24;html=1;rounded=0;entryX=0.5;entryY=1;entryDx=0;entryDy=0;exitX=0.5;exitY=0;exitDx=0;exitDy=0;" edge="1" parent="WIyWlLk6GJQsqaUBKTNV-1" source="IqVXhv2ddW2XKEcG9yaG-3" target="cTMpLwmZ2EmieA0-YEr4-5">
          <mxGeometry width="160" relative="1" as="geometry">
            <mxPoint x="445" y="626" as="sourcePoint" />
            <mxPoint x="3" y="366" as="targetPoint" />
          </mxGeometry>
        </mxCell>
        <mxCell id="IqVXhv2ddW2XKEcG9yaG-7" value="Use" style="endArrow=open;endSize=12;dashed=1;html=1;rounded=0;exitX=0.5;exitY=1;exitDx=0;exitDy=0;entryX=0.5;entryY=0;entryDx=0;entryDy=0;" edge="1" parent="WIyWlLk6GJQsqaUBKTNV-1" source="IqVXhv2ddW2XKEcG9yaG-6" target="IqVXhv2ddW2XKEcG9yaG-0">
          <mxGeometry width="160" relative="1" as="geometry">
            <mxPoint x="88" y="843" as="sourcePoint" />
            <mxPoint x="340" y="472" as="targetPoint" />
          </mxGeometry>
        </mxCell>
      </root>
    </mxGraphModel>
  </diagram>
</mxfile>
